<?xml version="1.0" encoding="utf-8"?>
<!-- Generator: Adobe Illustrator 20.0.0, SVG Export Plug-In . SVG Version: 6.00 Build 0)  -->
<svg version="1.1" id="Layer_1" xmlns="http://www.w3.org/2000/svg" xmlns:xlink="http://www.w3.org/1999/xlink" x="0px" y="0px"
	 viewBox="0 0 52.6 41.6" style="enable-background:new 0 0 52.6 41.6;" xml:space="preserve">
<style type="text/css">
	.st0{fill:#FFFFFF;}
	.st1{fill:#FFFFFF;stroke:#1AA8B7;stroke-width:2;stroke-miterlimit:10;}
</style>
<path class="st0" d="M37.4,14.5c-0.9,2.9-2.9,5.5-5.9,7.5L31,26.2c-0.2,1.3-1.1,2.4-2.3,2.9c-0.4,0.1-0.8,0.2-1.1,0.2
	c-0.9,0-1.8-0.4-2.5-1l-2.8-2.8c-1.4,0.2-2.9,0.3-4.3,0.3c0,0-0.1,0-0.1,0c0,0.2,0,0.3,0,0.5c0,3.6,2.4,6.9,6.2,9.1l0.7,5.5
	c0,0.4,0.3,0.6,0.6,0.8c0.3,0.1,0.7,0,1-0.2l3.8-3.7c1.6,0.3,3.4,0.5,5.2,0.5c9.6,0,17.4-5.3,17.4-11.9C52.6,20.2,46,15.2,37.4,14.5
	L37.4,14.5z M41.8,28.5"/>
<path class="st1" d="M23.6,24.3l3.8,3.7c0.2,0.2,0.4,0.3,0.7,0.3c0.1,0,0.2,0,0.3-0.1c0.3-0.1,0.6-0.4,0.6-0.8l0.7-5.5
	c3.8-2.2,6.2-5.4,6.2-9.1C35.9,6.3,28.1,1,18.4,1C8.8,1,1,6.3,1,12.9c0,6.6,7.8,11.9,17.4,11.9C20.2,24.8,22,24.6,23.6,24.3
	L23.6,24.3z M16.1,12.9"/>
</svg>
