<?xml version="1.0" encoding="utf-8"?>
<!-- Generator: Adobe Illustrator 20.0.0, SVG Export Plug-In . SVG Version: 6.00 Build 0)  -->
<svg version="1.1" id="Layer_1" xmlns="http://www.w3.org/2000/svg" xmlns:xlink="http://www.w3.org/1999/xlink" x="0px" y="0px"
	 viewBox="0 0 49.4 45" style="enable-background:new 0 0 49.4 45;" xml:space="preserve">
<style type="text/css">
	.st0{fill:#FFFFFF;}
	.st1{fill:#FFFFFF;stroke:#1AA8B7;stroke-width:0.7071;stroke-miterlimit:10;}
	.st2{fill:#1AA8B7;}
</style>
<path class="st0" d="M44.9,31.1V0H0v31.1h20.1V40h-8.9v4.2h22.2V40h-9.1v-8.9H44.9z M4.3,4.3h36.5v22.6H4.3V4.3z"/>
<g>
	<path class="st1" d="M47.2,18.2h-9.7c-1,0-1.8,0.8-1.8,1.8v22.8c0,1,0.8,1.8,1.8,1.8h9.7c1,0,1.8-0.8,1.8-1.8V20.1
		C49,19.1,48.2,18.2,47.2,18.2z"/>
	<rect x="37.5" y="22" class="st2" width="9.9" height="17.7"/>
	<rect x="41" y="19" class="st2" width="2.2" height="0.3"/>
	<circle class="st2" cx="42.3" cy="42.9" r="1.1"/>
</g>
</svg>
