<?xml version="1.0" encoding="utf-8"?>
<!-- Generator: Adobe Illustrator 20.0.0, SVG Export Plug-In . SVG Version: 6.00 Build 0)  -->
<svg version="1.1" id="Layer_1" xmlns="http://www.w3.org/2000/svg" xmlns:xlink="http://www.w3.org/1999/xlink" x="0px" y="0px"
	 viewBox="0 0 64.3 57.3" style="enable-background:new 0 0 64.3 57.3;" xml:space="preserve">
<style type="text/css">
	.st0{fill:#FFFFFF;}
	.st1{fill:#49AEC3;}
</style>
<g>
	<g>
		<path class="st0" d="M45.2,11.8c-7.6,0-10.3,4.2-10.6,13.4c2.3-3.3,6.2-5.1,12.6-5.1c10.9,0,17.1,6.6,17.1,17.3
			c0,11.5-5.9,19.9-20.1,19.9c-15.4,0-21.4-8.9-21.4-27.9c0-19.2,8.8-27.9,20.9-27.9c7,0,12.7,1,17.4,4.2l-4.1,9
			C53.5,12.6,49.5,11.8,45.2,11.8z M44.2,47c6.1,0,8.6-4.2,8.6-9.5c0-6.2-2.9-8.5-8.3-8.5c-4,0-7.6,1.6-9.9,5.6
			C35.2,42.5,37.5,47,44.2,47z"/>
	</g>
	<g>
		<g>
			<path class="st0" d="M16.8,30c-0.2,0-0.4-0.1-0.6-0.3c-0.1-0.2-0.2-0.4-0.1-0.6l1-4.6h-4.5l-0.9,4.9c-0.1,0.3-0.4,0.6-0.7,0.6
				H5.3c-0.2,0-0.4-0.1-0.6-0.3c-0.1-0.2-0.2-0.4-0.1-0.6l1.1-4.6H1.4c-0.2,0-0.4-0.1-0.6-0.3c-0.1-0.2-0.2-0.4-0.1-0.6l1-5
				C1.8,18.2,2.1,18,2.5,18H7l1.1-5.3H3.8c-0.2,0-0.4-0.1-0.6-0.3S3,12,3.1,11.8l1.1-5c0.1-0.3,0.4-0.6,0.7-0.6h4.5l0.8-4.9
				c0.1-0.4,0.4-0.6,0.7-0.6h5.9c0.2,0,0.4,0.1,0.6,0.3c0.1,0.2,0.2,0.4,0.1,0.6l-1,4.6h4.4l0.8-4.9C21.7,1,22,0.7,22.3,0.7h5.9
				c0.2,0,0.4,0.1,0.6,0.3c0.1,0.2,0.2,0.4,0.1,0.6l-1,4.6h4.2c0.2,0,0.4,0.1,0.6,0.3c0.1,0.2,0.2,0.4,0.1,0.6l-1.1,5
				c-0.1,0.3-0.4,0.6-0.7,0.6h-4.5L25.5,18h4.3c0.2,0,0.4,0.1,0.6,0.3c0.1,0.2,0.2,0.4,0.1,0.6l-1.1,5c-0.1,0.3-0.4,0.6-0.7,0.6
				h-4.5l-0.9,4.9c-0.1,0.3-0.4,0.6-0.7,0.6H16.8z M18.7,18.4l1.2-6.1h-5l-1.2,6.1H18.7z"/>
			<path class="st1" d="M28.2,1.4L28.2,1.4 M28.2,1.4L27,7h5.1l-1.1,5H26l-1.4,6.7h5.2l-1.1,5h-5.1l-1,5.5h-5.8l1.2-5.5h-6l-1,5.5
				H5.3l1.3-5.5H1.4l1-5h5.1L9,12H3.8l1.1-5h5.1l0.9-5.5h5.9L15.5,7h5.9l1-5.5H28.2 M20.8,11.6h-6.5l-1.5,7.5h6.6L20.8,11.6
				 M16.7,1.4L16.7,1.4 M32.2,7L32.2,7 M28.2,0L28.2,0h-5.9c-0.7,0-1.3,0.5-1.4,1.2l-0.7,4.3h-2.9l0.8-3.7c0-0.1,0.1-0.3,0.1-0.4
				c0-0.8-0.6-1.4-1.4-1.4h0h-5.9c-0.7,0-1.3,0.5-1.4,1.2L8.7,5.5H4.9C4.2,5.5,3.6,6,3.4,6.7l-1.1,5c-0.1,0.4,0,0.9,0.3,1.2
				c0.3,0.3,0.7,0.5,1.1,0.5h3.4l-0.8,3.8H2.5c-0.7,0-1.3,0.5-1.4,1.2l-1,5c-0.1,0.4,0,0.9,0.3,1.2C0.6,25,1,25.2,1.4,25.2h3.3
				l-0.9,3.7c-0.1,0.4,0,0.9,0.3,1.2c0.3,0.3,0.7,0.5,1.1,0.5h5.8c0.7,0,1.3-0.5,1.4-1.2l0.8-4.3h3L15.4,29c-0.1,0.4,0,0.9,0.3,1.2
				c0.3,0.3,0.7,0.5,1.1,0.5h5.8c0.7,0,1.3-0.5,1.4-1.2l0.8-4.3h3.9c0.7,0,1.3-0.5,1.4-1.1l1.1-5c0.1-0.4,0-0.9-0.3-1.2
				c-0.3-0.3-0.7-0.5-1.1-0.5h-3.4l0.8-3.8h3.9c0.7,0,1.3-0.5,1.4-1.1l1.1-4.9c0-0.1,0.1-0.3,0.1-0.4c0-0.8-0.6-1.4-1.4-1.4h0h-3.3
				l0.8-3.7c0-0.1,0.1-0.3,0.1-0.4C29.7,0.6,29,0,28.2,0L28.2,0z M28.2,2.9L28.2,2.9L28.2,2.9L28.2,2.9z M15.4,13H19l-0.9,4.6h-3.6
				L15.4,13L15.4,13z"/>
		</g>
	</g>
</g>
</svg>
