<?xml version="1.0" encoding="utf-8"?>
<!-- Generator: Adobe Illustrator 20.0.0, SVG Export Plug-In . SVG Version: 6.00 Build 0)  -->
<svg version="1.1" id="Layer_1" xmlns="http://www.w3.org/2000/svg" xmlns:xlink="http://www.w3.org/1999/xlink" x="0px" y="0px"
	 viewBox="0 0 52.9 55.5" style="enable-background:new 0 0 52.9 55.5;" xml:space="preserve">
<style type="text/css">
	.st0{fill:#FFFFFF;}
	.st1{fill:none;stroke:#FFFFFF;stroke-width:2;stroke-miterlimit:10;}
</style>
<path class="st0" d="M15.3,11.6c0,0-2.8-3.9-6.7-0.9l-7.1,5.3c0,0-0.8,0.4-0.9,1.5c0,1.1,0,0.4,0,0.4L0,26.1c0,0-0.1,1.9,1.9,2.3
	c0,0,1.7,0.1,2.3-1.9l0.6-7.7l4-2.9l0.4,12.7L4.7,47.3c0,0-0.5,2.2,1.9,3c0,0,2.2,0.5,3-1.9l4.3-17.9l4.9,2.3l-0.4,6.6
	c0,0-0.1,2.3,2.4,2.7c0,0,2.5,0.1,2.7-2.4l0.5-8.3c0,0,0-1.6-1.4-2.4l-6.4-3.3L16,18.9l2,2.4c0,0,0.5,0.6,1.4,0.7l7.7,0.9
	c0,0,1.8-0.2,2.1-1.9c0,0,0-2.1-1.9-2.3L20.7,18L15.3,11.6z"/>
<polyline class="st1" points="1,54.5 15.7,54.5 15.7,46 29,46 29,37.8 41,37.8 41,30.5 52.9,30.5 "/>
<path class="st0" d="M17.3,3.2c0.3,2.1-1.1,4.1-3.2,4.4C12,8,10,6.6,9.7,4.5c-0.3-2.1,1.1-4.1,3.2-4.4C15-0.3,16.9,1.1,17.3,3.2z"/>
</svg>
