<?xml version="1.0" encoding="utf-8"?>
<!-- Generator: Adobe Illustrator 20.0.0, SVG Export Plug-In . SVG Version: 6.00 Build 0)  -->
<svg version="1.1" id="Layer_1" xmlns="http://www.w3.org/2000/svg" xmlns:xlink="http://www.w3.org/1999/xlink" x="0px" y="0px"
	 viewBox="0 0 29.8 50.1" style="enable-background:new 0 0 29.8 50.1;" xml:space="preserve">
<style type="text/css">
	.st0{fill:#FFFFFF;}
</style>
<g>
	<path class="st0" d="M21.3,28.9c-0.1,0.6,0,1.9,0.3,2.5l7,15.3c0.4,0.8,0.8,1.7,0.2,2.6c-0.4,0.6-1,0.9-1.7,0.9l0,0
		c-1.2,0-1.7-0.9-2.1-1.6l-8.7-14.6l-2.4,4.8c-0.5,1.1-1.6,2.7-2.5,3.6l-4.7,5.1c-0.6,0.7-1.1,1.2-2,1.2c-0.8,0-1.4-0.4-1.8-1.1
		c-0.5-1.2,0.1-2,0.7-2.7L8.3,39c0.5-0.6,1.2-1.9,1.4-2.7l1.7-6.1c0.3-0.9,0.5-2.5,0.6-3.4l0.8-9.3c-3.8,1.3-7.5,6.2-8.7,8.3
		c-0.5,0.9-1,1.6-2.1,1.6h0c-0.7,0-1.3-0.4-1.7-1c-0.6-1-0.2-1.8,0.3-2.6c0.3-0.5,7.3-12.8,16.7-12.1c4.1,0.3,5.4,3.4,6.2,5.4
		c0.2,0.5,0.4,0.9,0.6,1.3l5.4,9.7c0.5,0.9,0.2,2.1-0.7,2.7c-0.9,0.5-2.1,0.3-2.6-0.6l-4-6.4L21.3,28.9z"/>
	<path class="st0" d="M23.9,3.9c0.4,2.6-1.3,5-3.9,5.4c-2.6,0.4-5-1.3-5.4-3.9c-0.4-2.6,1.3-5,3.9-5.4C21.1-0.4,23.5,1.4,23.9,3.9z"
		/>
</g>
</svg>
