<?xml version="1.0" encoding="utf-8"?>
<!-- Generator: Adobe Illustrator 20.0.0, SVG Export Plug-In . SVG Version: 6.00 Build 0)  -->
<svg version="1.1" id="Layer_1" xmlns="http://www.w3.org/2000/svg" xmlns:xlink="http://www.w3.org/1999/xlink" x="0px" y="0px"
	 viewBox="0 0 47.1 37.6" style="enable-background:new 0 0 47.1 37.6;" xml:space="preserve">
<style type="text/css">
	.st0{fill:#FFFFFF;}
	.st1{fill:#CC2030;}
</style>
<g>
	<path class="st0" d="M45.6,18.3c1.2-3.7,3.1-9.4-1-12C43.2,5.4,41.9,5,40.5,5c-1.5,0-2.7,0.5-3.6,0.9c-0.4,0.2-0.9,0.4-1.1,0.4
		c-0.2,0-0.7-0.2-1.1-0.4C33.7,5.5,32.5,5,31,5c-1.4,0-2.7,0.4-4.1,1.3c-4.1,2.6-2.2,8.2-1,12c0.4,1.2,0.7,2.3,0.8,2.8
		c0.1,1,0,2.4-0.1,3.8c-0.2,2.2-0.4,4.5,0.2,6.5c0.9,3.3,3.8,5.7,3.9,5.8c0.3,0.2,0.6,0.3,0.9,0.4c0,0,0.1,0,0.1,0
		c0.9,0,1.6-0.7,1.6-1.6c0-0.1,0-0.3-0.1-0.4c-0.1-0.8-0.8-5.3,0.2-8.1c0.8-2.1,1.9-3.2,2.4-3.5c0.5,0.3,1.6,1.4,2.4,3.5
		c1.1,3.1,0.2,8.2,0.2,8.2c-0.1,0.7,0.2,1.3,0.7,1.6c0.2,0.1,0.5,0.2,0.8,0.2c0.4,0,0.7-0.1,1-0.4c0.1-0.1,3-2.5,3.9-5.8
		c0.5-2,0.3-4.3,0.2-6.5c-0.1-1.4-0.2-2.7-0.1-3.8C44.9,20.5,45.2,19.4,45.6,18.3z"/>
	<path class="st1" d="M41,7c3.4-1,5.3,7.7,3.1,9.1C43,10.5,37.6,7.9,41,7z"/>
	<g>
		<path class="st0" d="M4.3,35.7c-0.9,0-1.7-0.3-2.3-1c-0.6-0.6-1-1.5-1-2.3s0.3-1.7,1-2.3l9.2-9.2c-3-5.1-2.2-11.7,2-16
			C15.7,2.4,19,1,22.6,1s6.8,1.4,9.3,3.9c5.1,5.1,5.1,13.5,0,18.6c-2.5,2.5-5.8,3.9-9.3,3.9c0,0,0,0,0,0c-2.4,0-4.7-0.6-6.7-1.8
			l-9.2,9.2C6,35.4,5.2,35.7,4.3,35.7z"/>
		<path class="st1" d="M22.6,2c3.1,0,6.2,1.2,8.6,3.6c4.8,4.8,4.8,12.5,0,17.2c-2.4,2.4-5.5,3.6-8.6,3.6c-2.4,0-4.8-0.7-6.8-2.1
			L5.9,34c-0.5,0.5-1,0.7-1.6,0.7S3.1,34.5,2.7,34c-0.9-0.9-0.9-2.4,0-3.3l9.8-9.8C9.3,16.2,9.8,9.8,13.9,5.6
			C16.3,3.2,19.4,2,22.6,2 M22.6,0c-3.8,0-7.3,1.5-10,4.1C8.1,8.5,7.2,15.3,10,20.7l-8.7,8.7c-1.7,1.7-1.7,4.4,0,6.1
			c0.8,0.8,1.9,1.3,3,1.3s2.2-0.4,3-1.3l8.7-8.7c2,1,4.2,1.6,6.5,1.6c3.8,0,7.3-1.5,10-4.1c2.7-2.7,4.1-6.2,4.1-10s-1.5-7.3-4.1-10
			C29.9,1.5,26.3,0,22.6,0L22.6,0z"/>
	</g>
	<ellipse transform="matrix(0.7071 -0.7071 0.7071 0.7071 -3.4129 20.0964)" class="st1" cx="22.6" cy="14.2" rx="9" ry="9"/>
</g>
</svg>
