<?xml version="1.0" encoding="utf-8"?>
<!-- Generator: Adobe Illustrator 20.0.0, SVG Export Plug-In . SVG Version: 6.00 Build 0)  -->
<svg version="1.1" id="Layer_1" xmlns="http://www.w3.org/2000/svg" xmlns:xlink="http://www.w3.org/1999/xlink" x="0px" y="0px"
	 viewBox="0 0 37.8 48.7" style="enable-background:new 0 0 37.8 48.7;" xml:space="preserve">
<style type="text/css">
	.st0{fill:#FFFFFF;}
</style>
<path class="st0" d="M37.8,38.2V16.8c0-2.8-2.3-5-5-5h-7.5l6.9-6l-2.7-3.1l-10.4,9.1h-0.5L11.5,0L8,2.1l5.9,9.7H5c-2.8,0-5,2.3-5,5
	v21.4c0,1.8,0.9,3.3,2.3,4.2L0,46.7l3.6,2l3-5.4h24.2l3,5.5l3.6-2l-2.2-4C36.7,41.9,37.8,40.2,37.8,38.2z M33.7,35.5
	c0,1.9-1.6,3.5-3.5,3.5H7.5C5.6,39,4,37.4,4,35.5v-16c0-1.9,1.6-3.5,3.5-3.5h22.6c1.9,0,3.5,1.6,3.5,3.5V35.5z"/>
</svg>
