<?xml version="1.0" encoding="utf-8"?>
<!-- Generator: Adobe Illustrator 20.0.0, SVG Export Plug-In . SVG Version: 6.00 Build 0)  -->
<svg version="1.1" id="Layer_1" xmlns="http://www.w3.org/2000/svg" xmlns:xlink="http://www.w3.org/1999/xlink" x="0px" y="0px"
	 viewBox="0 0 57 32.9" style="enable-background:new 0 0 57 32.9;" xml:space="preserve">
<style type="text/css">
	.st0{fill:#FFFFFF;}
</style>
<g>
	<path class="st0" d="M2,0.1L29.5,0c0,0,1.6,1.4,4.8,1.4c0,0-1.7,0.7-2.1,1.3c-0.1,0.1-0.1,0.2-0.1,0.2c0,0,5.4-0.7,7.9,0.9
		c0,0-5.1-0.6-3.4,5.2c0,0.1,0.1,0.2,0.1,0.3c0,0,1.8,0.5,1.4-3.1c0,0-0.3-1.8,1.8-1.6c0,0,3.1,2.1,0.8,4.7c0,0,5,0.4,8.4-4.1
		c0,0,3,0.4,4.3-0.4c0,0,2.2-5.4,3.2-0.4c0,0,2,0.8-3,2.4c0,0-0.9,1.6,0.1,2.7c0,0-6.8,1.6-5.6,6.9c0,0-0.4,3.6-4.4,4.8
		c0,0-2,1.9,0.1,6.4c0,0,1.2,5.2-1.5,0.9c0,0-0.7-5-3.4-3.7c0,0-2.4-2.4-4.3,0.2c0,0,0.3,1.1-3.8-0.3c0,0-5.1,1.6-3.9,5
		c0,0-2.3,0.1-3-3.7c0,0-1.4-2.4-2.7-0.3c0,0-1.2-0.3-3.1-3.4c0,0-1.6-0.1-2.6,0.6c0,0-2.7,0.4-5.6-1.6H7.5c0,0-0.9-2.2-3.5-2.6
		c0,0-5.9-6.3-3.2-14.3c0,0-1.8-4.8,0.1-3.3C0.8,1.2,2.7,3.8,2,0.1z"/>
	<path class="st0" d="M9.2,24.8L9.3,30c0,0,2.6,0.7,3.7,2.4c0,0,0.1,1.5-2-0.6c0,0,0-1-3.2-2c0,0-1.8-0.1-2.2,0.9
		c0,0-6.9,3.8-1.1-0.1c0,0-3.7-2.7-0.1-2.9l0.2-1c0,0-1.5,0-1.2-0.9c0,0,0.1-0.5,1,0.2l0.6,0.2l-0.7-1.8c0,0,0.7,0.2,1.7-0.6
		c0,0,0.7-0.7,1.2,0.4C7.2,24.2,8,24.9,9.2,24.8z"/>
	<path class="st0" d="M20.1,31.1c0,0-0.7,1.1,0.1,1.6c0,0,1.1-0.5,0.9-0.8C21.1,31.9,20.5,30.8,20.1,31.1z"/>
	<path class="st0" d="M14.8,28.5c0,0,3.4,1.6,4.6,2c0,0,0.1-0.9-0.9-0.8c0,0-0.8-0.1-1.2-0.6c0,0-0.1-0.3-0.7-0.2c0,0-1-0.1-1.2-0.6
		C15.4,28.4,14.4,27.9,14.8,28.5z"/>
</g>
</svg>
