<svg xmlns="http://www.w3.org/2000/svg" viewBox="0 0 367.4 334.7"><g class="lines-wrap"><path class="line line-creative" fill="none" stroke="#f9be00" stroke-miterlimit="10" d="M203.4 159.5h76.9v57.9h41.2"/><path class="line line-delivery" fill="none" stroke="#00a5b5" stroke-miterlimit="10" d="M3.4 216.2h121.7v73.1"/><path class="line line-analytics" fill="none" stroke="#ff4338" stroke-miterlimit="10" d="M367.4.5H215.2v86"/><path class="line line-strategy" fill="none" stroke="#9f958b" stroke-miterlimit="10" d="M0 .5h166.2v100"/></g><path d="M200 213.4c-.5 2.9.2 8.5 1.4 11.2l32 69.4c1.6 3.5 3.5 7.6.7 12-1.6 2.6-4.5 4.1-7.6 4.1-5.4 0-7.8-4.1-9.8-7.3l-39.5-66.5-10.7 21.8c-2.5 5.1-7.5 12.3-11.3 16.5l-21.6 23.3c-2.8 3-5 5.4-9.1 5.4-3.4 0-6.6-2-8.1-5.1-2.5-5.2.5-9 3.2-12.4l21.3-26.4c2.3-2.8 5.3-8.6 6.3-12.1l7.9-27.6c1.1-4 2.5-11.3 2.8-15.4l3.5-42.4c-17.2 5.7-34.1 28.2-39.8 37.6-2.4 3.9-4.5 7.3-9.6 7.4-3.1 0-6.1-1.7-7.7-4.4-2.6-4.5-.7-8 1.5-12.1 1.3-2.3 33.1-58.5 76.1-55.1 18.6 1.6 24.5 15.5 28.4 24.8.9 2.1 1.8 4.2 2.8 6.1l24.5 44.3c2.3 4.2.9 9.7-3.2 12.2-4.2 2.5-9.4 1.3-12-2.8l-18.2-29.1-4.2 22.6zM211.5 99.8c1.9 11.6-6 22.6-17.6 24.5-11.6 1.9-22.6-6-24.5-17.6-1.9-11.6 5.9-22.6 17.5-24.5 11.7-1.9 22.7 6 24.6 17.6z" fill="#cd202e"/><g><path class="prop prop-creative" d="M213.4 164.9c3.6-3.7 3.6-9.6 0-13.3-1.9-1.9-4.3-2.8-6.7-2.8-3.4.1-9 4.6-9 4.6s-5.8-4.6-9.2-4.6c-2.4 0-4.7.9-6.5 2.8a9.54 9.54 0 0 0 0 13.3l15.7 16 15.7-16z" fill-rule="evenodd" clip-rule="evenodd" fill="#f9be00" stroke="#fff" stroke-width="1.125" stroke-miterlimit="10"/><g class="prop prop-delivery"><path fill="#fff" d="M228.9 282.6l10.3 10.2 11.5 4.5 7 .2-4 7-14.3-1.1-13.4-12.6z"/><path d="M240.8 291.8c-.6 1.1-1.2 2.1-1.7 3.1-.3.5-.2 1.1.1 1.6.4.5.9.7 1.4.5.3-.1.6-.4.8-.7.6-1 1.2-2.1 1.9-3.3 1 .4 2 .9 3.1 1.3-.1.7-.2 1.5-.3 2.2-.1.6-.2 1.3-.2 1.9-.1.9.4 1.6 1.1 1.8.7.1 1.3-.3 1.4-1.2.1-1 .3-2.1.4-3.1 0-.2.1-.4.1-.6l3.9.6v2.7c0 .9.5 1.6 1.3 1.7.8.1 1.3-.5 1.3-1.4v-3.3c1.6-.2 3.2-.4 4.9-.6l-.6 1.5c-1 2.5-1.6 5.2-2 8-.1.4-.2.6-.5.8-10.1 4.4-22 9.7-32.1 14-1 .5-2.1.9-3.1 1.3-.7.3-1.4 0-1.8-.8-1.9-4.3-3.4-8.6-3.6-13.3-.2-2.1-2.9-7.3-2.9-7.3s-3-5.2-3.4-5.7c.9-.5 1.7-1 2.5-1.5 3.3-1.9 8.3-4.8 11.6-6.7 1.6-.9 3.1-1.9 4.7-2.8.1-.1.4-.1.5 0 1.2 1 5 5.1 6.2 6.2-.9.7-1.8 1.5-2.8 2.3-.1.1-.3.2-.4.3-.5.5-.6 1.3-.1 1.9.5.6 1.3.8 1.8.3 1.2-.9 2.3-1.8 3.4-2.8.5-.4.8-.5 1.4-.1.4.5 1 .8 1.7 1.2zm-19.1 14.9c1.6 3.5 5.5 5.3 8.7 3.9 3.1-1.4 4.4-5.4 2.9-8.9-1.6-3.6-5.5-5.3-8.6-3.9-3.3 1.4-4.6 5.4-3 8.9z" fill="#00a5b5"/><path d="M221.1 321.9c11.5-5 24.8-10.9 36.3-15.9.5 1.2 1 2.3 1.6 3.5-.1.1-.3.2-.4.2-10.9 4.7-23.6 10.4-34.5 15.1-.9.4-1.6-.1-2.2-1.4-.3-.4-.5-.9-.8-1.5zM259.4 303.5c.1-.4.1-.6.1-.9.6-2 1.1-3.9 1.7-5.8.2-.6.6-1.1.9-1.6.5-.7 1-1.1 1.9-1.1 1.7 0 3.4-.2 5.1-.2 1.3 0 1.6.6.9 1.8-.7 1.3-1.8 2.2-3 3.1-2.2 1.8-4.8 3.2-7.6 4.7zM271.4 296.3c1 1.6 1.4 3.1.4 4.4-1.4 1.7-3.1 2.9-4.8 4-2 1.2-4.1 2.3-6.1 3.4-.1.1-.2.1-.4.2-.4-.9-1.2-2.4-1.5-3.3 4.5-2.3 9.1-4.5 12.4-8.7z" fill="#f9be00"/><path d="M221.4 307.1c-1.7-3.8-.3-8.1 3.1-9.6s7.6.4 9.3 4.2c1.7 3.8.3 8.1-3.1 9.6s-7.6-.3-9.3-4.2z" fill="#f9be00" stroke="#fff" stroke-miterlimit="10"/><path fill="none" stroke="#fff" stroke-miterlimit="10" d="M206.3 296.3l23.5-13.6"/><g><path fill="#fff" d="M144.1 288.3l-7.2 12.6-1.5 12.3 1.5 6.8-7.7-2.2-2.6-14 8.9-16.2z"/><path d="M138.2 302.1c-1.2-.3-2.3-.6-3.4-.9-.6-.2-1.1 0-1.5.5-.4.5-.5 1-.2 1.4.2.3.6.5.9.6 1.2.4 2.4.7 3.6 1-.2 1.1-.3 2.1-.5 3.3-.7.1-1.5.2-2.2.3-.6.1-1.3.2-1.9.3-.9.1-1.5.8-1.4 1.5 0 .7.7 1.2 1.5 1.1 1-.1 2.1-.3 3.1-.4.2 0 .4 0 .6-.1.1 1.3.3 2.6.4 3.9-.8.2-1.7.4-2.6.7-.9.2-1.4.9-1.3 1.7.1.8.8 1.1 1.7.9 1-.3 2.1-.5 3.2-.8.6 1.5 1.2 3 1.8 4.6-.6-.1-1.1-.2-1.6-.2-2.7-.4-5.5-.2-8.3.1-.4.1-.6 0-.9-.3-6.8-8.7-14.9-18.8-21.6-27.5l-2.1-2.7c-.5-.6-.4-1.4.3-2 3.6-2.9 7.5-5.4 12-6.8 2-.7 6.3-4.7 6.3-4.7s4.3-4.2 4.7-4.7l2.1 2.1c2.7 2.7 6.7 6.8 9.4 9.5l3.9 3.9c.1.1.2.4.1.5-.7 1.4-3.7 6.1-4.4 7.6-1-.7-1.9-1.4-2.9-2.1-.1-.1-.3-.2-.4-.3-.6-.4-1.4-.2-1.9.3-.5.6-.4 1.4.1 1.9 1.2.9 2.4 1.8 3.6 2.6.5.3.7.7.4 1.3-.3.5-.4 1.2-.6 1.9zm-19.3-14.6c-3 2.4-3.8 6.6-1.6 9.4 2.1 2.7 6.4 2.9 9.4.5s3.8-6.6 1.6-9.4c-2.1-2.7-6.3-3-9.4-.5z" fill="#00a5b5" stroke="#fff" stroke-width=".25" stroke-miterlimit="10"/><path d="M104.1 290.7c7.7 9.9 16.8 21.3 24.5 31.1l-3 2.4-.3-.3c-7.3-9.4-16-20.3-23.3-29.6-.6-.7-.3-1.6.8-2.5.4-.4.8-.7 1.3-1.1zM131.6 323.1c.4 0 .6-.1.9-.1 2 .1 4.1.1 6.1.2.6 0 1.2.3 1.8.5.8.3 1.3.7 1.5 1.6.5 1.6 1 3.2 1.5 4.9.3 1.3-.2 1.7-1.5 1.3-1.4-.4-2.6-1.2-3.7-2.1-2.5-1.8-4.5-4-6.6-6.3zM141.6 333c-1.3 1.4-2.6 2.1-4.2 1.5-2-.9-3.6-2.2-5.1-3.7-1.7-1.6-3.2-3.4-4.8-5l-.3-.3c.7-.6 2.1-1.7 2.8-2.3 3.4 3.7 6.7 7.5 11.6 9.8z" fill="#f9be00"/><path d="M118.5 287.2c3.3-2.6 7.8-2.4 10.1.6 2.3 2.9 1.5 7.5-1.8 10.1-3.2 2.6-7.8 2.3-10.1-.6s-1.5-7.5 1.8-10.1z" fill="#f9be00" stroke="#fff" stroke-miterlimit="10"/><path fill="none" stroke="#fff" stroke-miterlimit="10" d="M128.8 272.9l18.3 18.4"/><path d="M105.6 291.2c-.5-.6-.4-1.4.3-2 3.6-2.9 7.5-5.4 12-6.8 2-.7 6.3-4.7 6.3-4.7s4.3-4.2 4.7-4.7l2.1 2.1" fill="#00a5b5" stroke="#fff" stroke-miterlimit="10"/></g></g><g class="prop prop-strategy"><path d="M206 115.8c-9.8 0-10.9-1.7-12.7-6.4-.6-1.6-.8-3-1-4.1-.3-2-.5-2.6-1.8-2.6s-1.5.6-1.8 2.6c-.2 1.1-.4 2.5-1 4.1-1.8 4.8-2.9 6.4-12.7 6.4-8.8 0-9.2-7.2-9.4-10.3 0-.6-.1-1-.1-1.3-.4-1.5-1.2-2.1-2.1-2.8l-.2-.1c-.8-.6-.9-1.5-.7-2.2.2-.5.5-.8 1-.8.1 0 .6-.1 1.1-.3 2.1-.6 6.4-1.7 10.8-1.7 3.3 0 6.8.7 9.8 1.2 2.2.4 4.1.8 5.3.8 1.3 0 3.2-.4 5.3-.8 3.1-.6 6.5-1.2 9.8-1.2 4.3 0 8.7 1.2 10.8 1.7.5.1 1 .3 1.1.3.4 0 .8.3 1 .8.2.7.1 1.6-.7 2.2l-.2.1c-.9.7-1.7 1.3-2.1 2.8-.1.2-.1.7-.1 1.3-.2 3.1-.6 10.3-9.4 10.3zm-5.4-15.9c-1.5 0-2.8.6-3.8 1.8-1 1.2-1.3 2.8-1 4.2 1 4.1 3.3 6.2 6.7 6.2h3.2c3.3 0 6-2.7 6-6.1.1-2.8-.2-4.4-1.1-5.3-.5-.6-1.4-.8-2.5-.8h-7.5zm-27.9 0c-1.1 0-1.9.3-2.5.8-.8.9-1.2 2.5-1.1 5.3 0 3.4 2.7 6.1 6 6.1h3.2c3.4 0 5.8-2.2 6.7-6.2.3-1.4 0-3-1-4.2-.9-1.2-2.3-1.8-3.8-1.8h-7.5z" fill="#9f958b"/><path d="M205.7 96.8c5.6 0 11.3 2 11.9 2s.9 1.4 0 2.1c-.9.7-2 1.4-2.5 3.2s.8 11.2-9 11.2c-9.9 0-10.6-1.7-12.2-6.1-1.6-4.4-.5-7.1-3.3-7.1s-1.7 2.7-3.3 7.1c-1.6 4.4-2.4 6.1-12.2 6.1-9.9 0-8.6-9.4-9-11.2-.5-1.8-1.5-2.5-2.5-3.2-.9-.7-.6-2.1 0-2.1s6.2-2 11.9-2c5.6 0 12.1 2 15.2 2 2.9 0 9.3-2 15-2m-3.1 15.8h3.2c3.6 0 6.5-3 6.5-6.6.1-3.9-.5-6.6-4-6.6h-7.6c-3.6 0-6 3.4-5.2 6.6.9 4.4 3.5 6.6 7.1 6.6m-27.4 0h3.2c3.6 0 6.2-2.2 7.2-6.6.7-3.2-1.7-6.6-5.2-6.6h-7.6c-3.6 0-4.2 2.7-4 6.6-.1 3.6 2.8 6.6 6.4 6.6m30.5-16.8c-3.3 0-6.8.7-9.9 1.3-2.2.4-4 .8-5.3.8-1.2 0-3.1-.4-5.3-.8-3.1-.6-6.6-1.3-9.9-1.3-4.4 0-8.8 1.2-10.9 1.8-.4.1-.9.2-1 .3-.6 0-1.2.5-1.4 1.2-.3.8-.1 2 .9 2.7l.2.1c.9.6 1.6 1.2 1.9 2.5 0 .2.1.7.1 1.2.2 3.2.7 10.7 9.9 10.7 10.2 0 11.4-1.9 13.2-6.8.6-1.7.9-3.1 1.1-4.2.4-2.1.5-2.2 1.3-2.2s1 .1 1.3 2.2c.2 1.1.4 2.5 1.1 4.2 1.8 4.8 2.9 6.8 13.2 6.8 9.2 0 9.7-7.5 9.9-10.7 0-.5.1-1 .1-1.2.4-1.3 1.1-1.9 1.9-2.5l.2-.1c1-.7 1.1-1.9.9-2.7-.2-.7-.8-1.2-1.4-1.2-.1 0-.6-.1-1-.3-2.3-.6-6.7-1.8-11.1-1.8zm-3.1 15.8c-4 0-5.6-3.2-6.3-5.8-.3-1.3 0-2.7.9-3.7.8-1.1 2-1.6 3.4-1.6h7.6c1 0 1.6.2 2.1.7.7.8 1 2.3.9 4.9 0 3.1-2.5 5.7-5.5 5.7h-3.1v-.2zm-27.4 0c-3 0-5.5-2.5-5.5-5.6-.1-2.7.2-4.2.9-4.9.5-.5 1.1-.7 2.1-.7h7.6c1.3 0 2.5.6 3.4 1.6.9 1.1 1.2 2.5.9 3.8-.6 2.7-2.2 5.8-6.2 5.8h-3.2z" fill="#fff"/></g><g class="prop prop-analytics"><path d="M202.6 101c-5.6 0-12-2.3-19.6-7.1l-.9-.6 1.1-.3c3.1-.9 6.6-2.7 10.3-4.6 5.8-2.9 11.7-6 16.5-6 .4 0 .8 0 1.2.1h.2s11.1 4 14.4 5.2l1.3.5-1.3.5c-1.6.6-3 1.9-4.5 3.3-1 1-2.2 2-3.4 2.7-4.1 2.9-8.6 6.3-15.3 6.3zm-33.3-4.8c-2.3-12.8-2.4-25.4 11.8-30.5l1-.4-.4 1c-1.4 3.6 1.8 11.9 4.2 17.9 1 2.5 1.8 4.6 2.3 6.2l.1.4-.4.2c-2 .9-4 1.5-5.9 2.1l-12.6 3.6-.1-.5zm53.1-.4c-1.1 0-2.3-.2-3.6-.6l-1-.3.8-.6c.9-.7 1.8-1.5 2.7-2.3 1.7-1.6 3.5-3.2 5.6-3.5h.3l.2.3c.8 1.1.7 3 0 4.4-.6 1-1.9 2.6-5 2.6zm-34.1-5.6c-.4-1.7-1.4-4.3-2.5-6.9-2.8-6.9-5.9-14.6-3.3-18l.1-.1h.2c.6-.2 1.3-.3 2-.4 1.4-.2 2.7-.2 4-.2 12.7 0 17.4 8 21.4 17l.3.7h-.8c-4.8 0-10.4 3-15.3 5.6-1.9 1-3.7 2-5.4 2.8l-.5.2-.2-.7zm-7.5-25.4c.2-1.1 1-1.8 2-1.8.6 0 1.3.3 1.8.8l.7.7-.9.2c-1 .2-2 .4-2.9.7l-.8.3.1-.9z" fill-rule="evenodd" clip-rule="evenodd" fill="#ff4338"/><path d="M182.8 63.5c.5 0 1 .2 1.4.7-1 .2-2 .4-2.9.7.2-.9.8-1.4 1.5-1.4m6 1.5c12.2 0 16.8 7.4 21 16.7-6.7 0-14.7 5.6-20.9 8.4-1.5-6-9.3-20-5.9-24.5.7-.2 1.3-.3 2-.4 1.3-.1 2.6-.2 3.8-.2m-7.6 1.2c-2 5.3 4.8 18.6 6.5 24.4-1.8.8-3.7 1.5-5.8 2-4 1.2-8.1 2.3-12.1 3.5-2.3-12.7-2.4-24.9 11.4-29.9M209.9 83c.4 0 .8 0 1.2.1 0 0 11.1 4 14.4 5.2-1.7.6-3.2 2-4.7 3.4-1.1 1-2.2 1.9-3.3 2.7-4.1 3.1-8.5 6.3-14.9 6.3-4.9 0-11.1-1.8-19.3-7 7.9-2.6 19.1-10.7 26.6-10.7m17 6.1c1.2 1.7.4 6.3-4.5 6.3-1 0-2.1-.2-3.5-.6.9-.7 1.8-1.5 2.7-2.3 1.8-1.6 3.4-3.1 5.3-3.4m-44.1-26.6c-1.2 0-2.2.9-2.5 2.2l-.2.8c-13.8 5.4-13.6 18-11.4 30.8l.2 1.1 1.1-.3 11.7-3.3 1 .6c7.7 4.8 14.2 7.1 19.8 7.1 6.6 0 11.1-3.2 15-6.1l1 .3c1.4.4 2.6.6 3.8.6 3.3 0 4.8-1.8 5.4-2.9.9-1.6.9-3.7 0-4.9l-.1-.1.7-.2-2.5-.9c-3.3-1.2-14.4-5.2-14.4-5.2h-.4l-.3-.7c-4.1-9.1-8.9-17.3-21.9-17.3-1 0-2.1.1-3.2.2l-.7-.7c-.5-.8-1.3-1.1-2.1-1.1z" fill="#fff"/></g></g></svg>