<svg xmlns="http://www.w3.org/2000/svg" viewBox="0 0 135.73 230.27"><style>.st0,.st1,.st2,.st3{display:none;fill:none;stroke:#f9be00;stroke-miterlimit:10}.st1,.st2,.st3{stroke:#00a5b5}.st2,.st3{stroke:#ff4338}.st3{stroke:#9f958b}.st4{fill:#cd202e}.st5{display:none}.st6{display:inline;fill:#ff4338}.st7{fill:#fff}.st7,.st8{display:inline}.st9{fill:#00a5b5}.st10{fill:#fff}.st11{display:none;fill-rule:evenodd;clip-rule:evenodd;fill:#f9be00;stroke:#fff;stroke-miterlimit:10}.st12{display:inline;fill:#9f958b}.st13{fill:#004750}.st14,.st15,.st16,.st17{fill:none;stroke:#ff4338;stroke-miterlimit:10}.st15,.st16,.st17{fill:#ff4338}.st16,.st17{fill:#f9be00;stroke:#f9be00}.st17{fill:none}.st18,.st19,.st20,.st21{fill:#00a5b5;stroke:#00a5b5;stroke-miterlimit:10}.st19,.st20,.st21{fill:none}.st20,.st21{fill:#9f958b;stroke:#9f958b}.st21{fill:none}</style><g id="lines"><path id="line-creativity" class="st0" d="M102.42 80.6h46.85v57.88h41.22"/><path id="line-delivery" class="st1" d="M-29.68 137.26h51.73v73.17"/><path id="line-analytics" class="st2" d="M184.38-50.41H98.21v66.98"/><path id="line-strategy" class="st3" d="M-21.03-50.41h86.17v66.98"/></g><g id="buddy_1_"><path id="body" class="st4" d="M96.93 132.49c-.54 2.95.15 8.52 1.41 11.24l32 69.44c1.62 3.54 3.5 7.57.71 11.95-1.63 2.56-4.52 4.14-7.56 4.14-5.38 0-7.79-4.08-9.77-7.34l-39.55-66.47-10.72 21.76c-2.49 5.1-7.48 12.34-11.33 16.46l-21.56 23.26c-2.82 3.02-5.01 5.36-9.14 5.36-3.44 0-6.56-1.97-8.08-5.07-2.5-5.25.54-9.04 3.24-12.39l21.28-26.36c2.28-2.84 5.3-8.61 6.29-12.13l7.91-27.61c1.14-4.05 2.48-11.26 2.82-15.45l3.5-42.41c-17.22 5.69-34.09 28.19-39.8 37.61-2.43 3.94-4.47 7.34-9.6 7.35h-.02c-3.13 0-6.09-1.68-7.69-4.41-2.64-4.48-.7-8 1.55-12.06 1.3-2.35 33.14-58.49 76.07-55.11 18.56 1.59 24.47 15.53 28.4 24.76.92 2.15 1.79 4.24 2.81 6.11l24.5 44.27c2.34 4.24.94 9.73-3.22 12.18-4.18 2.47-9.44 1.31-12.01-2.79l-18.24-29.11-4.2 22.82z"/><path id="head" class="st4" d="M108.48 18.89c1.93 11.62-5.97 22.59-17.58 24.49-11.65 1.92-22.6-5.98-24.47-17.6C64.51 14.17 72.36 3.2 83.97 1.3c11.63-1.92 22.59 5.97 24.51 17.59z"/></g><g id="rollovers"><g id="rollover-analytics" class="rollover-block rollover-analytics st5" data-rollover-slug="analytics"><path class="st6" d="M87.92 44.16c-.57 0-.57 0-.64-7.16-.04-4-.06-9.33-.08-14.66-.04-10.66-.04-21.33-.04-21.33V.5h.51c5.83.06 11.29 2.39 15.37 6.56s6.29 9.67 6.23 15.5c-.11 11.85-9.48 21.34-21.34 21.59h-.01v.01z"/><path class="st7" d="M87.66 1.01c11.78.12 21.23 9.78 21.11 21.55-.1 11.55-9.4 20.85-20.85 21.09-.23.01-.26-42.64-.26-42.64m-1-1.01v1.01s.01 10.66.04 21.33c.02 6.19.05 11.13.08 14.67.02 2 .04 3.67.06 4.84.01.59.02 1.06.04 1.38.02.47.06 1.44 1.04 1.44 12.15-.26 21.74-9.96 21.85-22.08.06-5.96-2.2-11.6-6.38-15.86C99.22 2.46 93.63.08 87.67.02L86.66 0z"/></g><g id="rollover-delivery" class="rollover-block rollover-delivery st5" data-rollover-slug="delivery"><g class="st8"><path class="st9" d="M21.75 222.79c-3.65 0-6.92-2.05-8.53-5.35-2.65-5.54.65-9.64 3.3-12.92l11.99-14.85 16.37 12.91-13.63 14.7c-2.87 3.07-5.15 5.51-9.5 5.51z"/><path class="st10" d="M28.6 190.36l15.55 12.26-13.26 14.3c-2.82 3.02-5.01 5.36-9.14 5.36-3.44 0-6.56-1.97-8.08-5.07-2.5-5.25.54-9.04 3.24-12.39l11.69-14.46m-.16-1.4l-.62.77-11.68 14.47c-2.74 3.4-6.14 7.63-3.36 13.45 1.69 3.48 5.13 5.64 8.98 5.64 4.57 0 7.02-2.63 9.87-5.68l13.26-14.3.74-.79-.85-.67-15.55-12.26-.79-.63z"/></g><g class="st8"><path class="st9" d="M123.82 229.77c-5.61 0-8.12-4.15-10.13-7.49l-11.95-20.08 19.22-11.32 10.18 22.09c1.7 3.72 3.59 7.85.67 12.43-1.73 2.69-4.79 4.37-7.99 4.37z"/><path class="st10" d="M120.72 191.58l9.95 21.59c1.62 3.54 3.5 7.57.71 11.95-1.63 2.56-4.52 4.14-7.56 4.14-5.38 0-7.79-4.08-9.77-7.34l-11.63-19.56 18.3-10.78m.45-1.42l-.95.56-18.31 10.78-.87.51.51.86 11.63 19.56.06.1c1.97 3.26 4.67 7.73 10.56 7.73 3.37 0 6.59-1.76 8.41-4.6 3.06-4.81 1.03-9.26-.61-12.84l-.03-.07-9.95-21.59-.45-1z"/></g></g><path id="rollover-creativity" class="rollover-block rollover-creativity st11" data-rollover-slug="creativity" d="M109.74 91.06c4.44-4.5 4.43-11.79 0-16.29-2.27-2.3-5.25-3.42-8.23-3.37-4.15.07-11.01 5.65-11.01 5.65s-7.05-5.65-11.3-5.65c-2.9.01-5.8 1.13-8.01 3.37-4.44 4.5-4.44 11.79 0 16.29l19.27 19.54 19.28-19.54z"/><g id="rollover-strategy" class="rollover-block rollover-strategy st5" data-rollover-slug="strategy"><path class="st12" d="M105.8 36.71c-11.51 0-12.82-1.94-14.91-7.54-.71-1.9-.99-3.53-1.21-4.83-.41-2.41-.62-3.17-2.23-3.17-1.61 0-1.81.76-2.22 3.17-.22 1.31-.5 2.93-1.21 4.83-2.09 5.6-3.4 7.54-14.91 7.54-10.26 0-10.79-8.44-11.02-12.04-.04-.66-.08-1.23-.15-1.52-.48-1.8-1.53-2.58-2.54-3.34l-.19-.14c-.88-.66-1.02-1.71-.77-2.47.19-.57.6-.93 1.07-.93.13-.01.71-.17 1.32-.33 2.46-.67 7.58-2.06 12.7-2.06 3.88 0 7.98.78 11.6 1.47 2.59.49 4.83.92 6.33.92s3.74-.43 6.33-.92c3.62-.69 7.73-1.47 11.6-1.47 5.12 0 10.24 1.39 12.7 2.06.61.17 1.19.32 1.33.33.46 0 .87.36 1.06.93.25.75.11 1.81-.77 2.47l-.19.14c-1.02.76-2.06 1.54-2.54 3.34-.08.29-.11.86-.15 1.52-.24 3.6-.77 12.04-11.03 12.04zm-6.38-18.79c-1.78 0-3.38.78-4.5 2.19-1.14 1.43-1.59 3.3-1.2 5.02 1.16 4.86 3.95 7.43 8.05 7.43h3.74c3.95 0 7.16-3.28 7.16-7.31.12-3.31-.28-5.24-1.28-6.29-.67-.69-1.64-1.03-2.97-1.03h-9zm-32.93 0c-1.33 0-2.3.34-2.97 1.03-1.01 1.05-1.41 2.98-1.28 6.27 0 4.05 3.21 7.33 7.16 7.33h3.74c4.1 0 6.88-2.57 8.05-7.43.39-1.71-.06-3.58-1.2-5.01-1.12-1.41-2.72-2.19-4.5-2.19h-9z"/><path class="st7" d="M105.38 14.39c6.66 0 13.35 2.39 14.02 2.39s1.11 1.67 0 2.5c-1.11.83-2.36 1.67-2.91 3.75-.56 2.08.97 13.18-10.69 13.18S93.28 34.15 91.35 29c-1.92-5.14-.61-8.33-3.9-8.33s-1.98 3.19-3.9 8.33c-1.93 5.15-2.79 7.21-14.45 7.21s-10.13-11.1-10.69-13.18c-.56-2.08-1.8-2.91-2.91-3.75-1.11-.83-.67-2.5 0-2.5s7.36-2.39 14.02-2.39c6.66 0 14.29 2.39 17.93 2.39 3.64 0 11.28-2.39 17.93-2.39m-3.61 18.66h3.74c4.21 0 7.66-3.52 7.66-7.82.17-4.61-.54-7.82-4.75-7.82h-8.99c-4.21 0-7.04 4.07-6.18 7.82 1.22 5.17 4.31 7.82 8.52 7.82m-32.37 0h3.74c4.21 0 7.3-2.65 8.53-7.82.86-3.74-1.97-7.82-6.18-7.82H66.5c-4.21 0-4.92 3.21-4.75 7.82-.01 4.3 3.44 7.82 7.65 7.82m35.98-19.66c-3.92 0-8.05.79-11.7 1.48-2.57.49-4.78.91-6.24.91-1.45 0-3.67-.42-6.24-.91-3.64-.69-7.77-1.48-11.7-1.48-5.19 0-10.35 1.4-12.83 2.08-.52.14-1.07.29-1.23.32-.67.02-1.24.5-1.5 1.27-.31.92-.14 2.22.94 3.03l.19.14c.99.74 1.93 1.43 2.36 3.06.06.24.1.81.14 1.42.24 3.74.79 12.51 11.52 12.51 11.97 0 13.29-2.27 15.38-7.86.73-1.94 1.01-3.6 1.23-4.92.43-2.5.59-2.76 1.73-2.76 1.14 0 1.31.26 1.73 2.76.23 1.33.51 2.98 1.23 4.92 2.09 5.59 3.42 7.86 15.38 7.86 10.73 0 11.28-8.77 11.52-12.51.04-.61.07-1.18.14-1.42.43-1.63 1.37-2.33 2.36-3.06l.19-.14c1.08-.81 1.25-2.1.94-3.03-.26-.77-.83-1.25-1.5-1.27-.16-.03-.71-.17-1.23-.32-2.45-.68-7.62-2.08-12.81-2.08zm-3.61 18.66c-4.85 0-6.79-3.83-7.56-7.05-.36-1.55.06-3.27 1.1-4.58 1.03-1.29 2.49-2 4.11-2h8.99c1.19 0 2.04.29 2.61.87.91.94 1.26 2.76 1.14 5.9 0 3.79-2.99 6.85-6.66 6.85h-3.73v.01zm-32.37 0c-3.67 0-6.66-3.06-6.66-6.82-.12-3.18.24-5 1.14-5.94.57-.59 1.42-.87 2.61-.87h8.99c1.62 0 3.08.71 4.11 2 1.05 1.31 1.46 3.03 1.1 4.59-.77 3.21-2.7 7.04-7.56 7.04H69.4z"/></g></g><g id="boxes" class="st5"><g id="box-analytics" class="st8"><text transform="translate(208.026 -18.055)"><tspan x="0" y="0" class="st13" font-family="EnzoOT-Medi" font-size="12">KPI Identification</tspan><tspan x="6.95" y="18.5" class="st13" font-family="EnzoOT-Medi" font-size="12">Campaign ROI</tspan><tspan x="-8.22" y="37" class="st13" font-family="EnzoOT-Medi" font-size="12">Dashboard Creation</tspan><tspan x="-9.63" y="55.5" class="st13" font-family="EnzoOT-Medi" font-size="12">Campaign Reporting</tspan><tspan x="10.2" y="74" class="st13" font-family="EnzoOT-Medi" font-size="12">Optimization</tspan><tspan x="-21.26" y="92.5" class="st13" font-family="EnzoOT-Medi" font-size="12">Advanced Data Modeling</tspan><tspan x="16.25" y="111" class="st13" font-family="EnzoOT-Medi" font-size="12">Attribution</tspan></text><path class="st14" d="M176.19-43.72h152.22V108.5H176.19z"/><path class="st15" d="M175.89-63.1h152.8v27h-152.8z"/><path fill="none" d="M209.21-54.41h86.16v15.5h-86.16z"/><text transform="translate(215.79 -44.363)" class="st10" font-family="EnzoOT-Bold" font-size="14">Analytics</text></g><g id="box-creative" class="st8"><text transform="translate(207.936 170.842)"><tspan x="0" y="0" class="st13" font-family="EnzoOT-Medi" font-size="12">Art/Design/Copy </tspan><tspan x="17.53" y="18.5" class="st13" font-family="EnzoOT-Medi" font-size="12">TV/Video </tspan><tspan x="-13.16" y="37" class="st13" font-family="EnzoOT-Medi" font-size="12">Content Development</tspan><tspan x="4.93" y="55.5" class="st13" font-family="EnzoOT-Medi" font-size="12">Video Graphics</tspan><tspan x="14.41" y="74" class="st13" font-family="EnzoOT-Medi" font-size="12">Animations</tspan><tspan x="-6.65" y="92.5" class="st13" font-family="EnzoOT-Medi" font-size="12">Full Digital Services</tspan><tspan x="-2.66" y="111" class="st13" font-family="EnzoOT-Medi" font-size="12">Print/OOH/Transit</tspan></text><path class="st16" d="M175.89 124.98h152.8v27h-152.8z"/><path fill="none" d="M209.21 134.48h86.16v15.5h-86.16z"/><text transform="translate(220.724 144.534)"><tspan x="0" y="0" class="st10" font-family="EnzoOT-Bold" font-size="14">C</tspan><tspan x="8.16" y="0" class="st10" font-family="EnzoOT-Bold" font-size="14">R</tspan><tspan x="17.29" y="0" class="st10" font-family="EnzoOT-Bold" font-size="14">EAT</tspan><tspan x="42.21" y="0" class="st10" font-family="EnzoOT-Bold" font-size="14">I</tspan><tspan x="46.31" y="0" class="st10" font-family="EnzoOT-Bold" font-size="14">VE</tspan></text><path class="st17" d="M175.89 151.87h152.8v144h-152.8z"/></g><g id="box-delivery" class="st8"><text transform="translate(-128.63 170.842)"><tspan x="0" y="0" class="st13" font-family="EnzoOT-Medi" font-size="12">Video Shoots</tspan><tspan x="-10.45" y="18.5" class="st13" font-family="EnzoOT-Medi" font-size="12">Editing/Music/VO</tspan><tspan x="7.85" y="37" class="st13" font-family="EnzoOT-Medi" font-size="12">Art Buying</tspan><tspan x=".88" y="55.5" class="st13" font-family="EnzoOT-Medi" font-size="12">Photography</tspan><tspan x="-7.53" y="74" class="st13" font-family="EnzoOT-Medi" font-size="12">Print Production</tspan><tspan x="-27.14" y="92.5" class="st13" font-family="EnzoOT-Medi" font-size="12">Front End Development</tspan><tspan x="6.71" y="111" class="st13" font-family="EnzoOT-Medi" font-size="12">Trafficking</tspan></text><path class="st18" d="M-170.49 123.76H-17.1v27h-153.39z"/><path fill="none" d="M-136.88 133.26h86.16v15.5h-86.16z"/><text transform="translate(-125.65 143.308)" class="st10" font-family="EnzoOT-Bold" font-size="14">Delivery</text><path class="st19" d="M-170.2 145.34h152.8v152.8h-152.8z"/></g><g id="box-strategy" class="st8"><text transform="translate(-141.722 -18.055)"><tspan x="0" y="0" class="st13" font-family="EnzoOT-Medi" font-size="12">Strategic Planning</tspan><tspan x="-.75" y="18.5" class="st13" font-family="EnzoOT-Medi" font-size="12">Brand Architecture</tspan><tspan x="1.55" y="37" class="st13" font-family="EnzoOT-Medi" font-size="12">Brand Positioning</tspan><tspan x="-20.32" y="55.5" class="st13" font-family="EnzoOT-Medi" font-size="12">Customer Journey Mapping</tspan><tspan x="4.06" y="74" class="st13" font-family="EnzoOT-Medi" font-size="12">Market Research</tspan><tspan x="10.69" y="92.5" class="st13" font-family="EnzoOT-Medi" font-size="12">Segmentation</tspan><tspan x="18.26" y="111" class="st13" font-family="EnzoOT-Medi" font-size="12"> Messaging</tspan></text><path class="st20" d="M-170.49-63.91H-17.1v27h-153.39z"/><path fill="none" d="M-136.88-54.41h86.16v15.5h-86.16z"/><text transform="translate(-128.213 -44.363)"><tspan x="0" y="0" class="st10" font-family="EnzoOT-Bold" font-size="14">ST</tspan><tspan x="16.32" y="0" class="st10" font-family="EnzoOT-Bold" font-size="14">R</tspan><tspan x="25.45" y="0" class="st10" font-family="EnzoOT-Bold" font-size="14">ATEGY</tspan></text><path class="st21" d="M-170.2-37.03h152.8v145.52h-152.8z"/></g></g></svg>