<svg id="Layer_2" xmlns="http://www.w3.org/2000/svg" xmlns:xlink="http://www.w3.org/1999/xlink" viewBox="0 0 720 480"><style>.st0-chicagoflag{fill:none}.st1-chicagoflag{fill:#661118}.st2-chicagoflag{fill:#cc202e}.st3-chicagoflag{fill:url(#Star_Pattern_1_2_)}.st4-chicagoflag{fill:url(#Star_Pattern_2_2_)}.st5-chicagoflag{fill:url(#Star_Pattern_3_2_)}.st6-chicagoflag{fill:url(#Star_Pattern_4_2_)}.st7-chicagoflag{fill:#fff}.st8-chicagoflag{fill:#b3ddf2}</style><pattern y="480" width="6.5" height="39" patternUnits="userSpaceOnUse" id="Star_Pattern_1_1_" viewBox="0 -39 6.5 39" overflow="visible"><path class="st0-chicagoflag" d="M0-39h6.5V0H0z"/><path class="st0-chicagoflag" d="M0-39h6.5V0H0z"/><path class="st1-chicagoflag" d="M0-39h3.3V0H0z"/><path class="st0-chicagoflag" d="M3.3-39h3.3V0H3.3z"/></pattern><pattern y="480" width="6.5" height="39" patternUnits="userSpaceOnUse" id="Star_Pattern_2_1_" viewBox="0 -39 6.5 39" overflow="visible"><path class="st0-chicagoflag" d="M0-39h6.5V0H0z"/><path class="st0-chicagoflag" d="M0-39h6.5V0H0z"/><path class="st1-chicagoflag" d="M0-39h3.3V0H0z"/><path class="st0-chicagoflag" d="M3.3-39h3.3V0H3.3z"/></pattern><pattern y="480" width="6.5" height="39" patternUnits="userSpaceOnUse" id="Star_Pattern_3_1_" viewBox="0 -39 6.5 39" overflow="visible"><path class="st0-chicagoflag" d="M0-39h6.5V0H0z"/><path class="st0-chicagoflag" d="M0-39h6.5V0H0z"/><path class="st1-chicagoflag" d="M0-39h3.3V0H0z"/><path class="st0-chicagoflag" d="M3.3-39h3.3V0H3.3z"/></pattern><pattern y="480" width="6.5" height="39" patternUnits="userSpaceOnUse" id="Star_Pattern_4_1_" viewBox="0 -39 6.5 39" overflow="visible"><path class="st0-chicagoflag" d="M0-39h6.5V0H0z"/><path class="st0-chicagoflag" d="M0-39h6.5V0H0z"/><path class="st1-chicagoflag" d="M0-39h3.3V0H0z"/><path class="st0-chicagoflag" d="M3.3-39h3.3V0H3.3z"/></pattern><path id="Back_Red" class="st2-chicagoflag" d="M86 160h551v160H86z"/><pattern id="Star_Pattern_1_2_" xlink:href="#Star_Pattern_1_1_" patternTransform="scale(.5 -.5) rotate(45 -26160.604 -17795.291)"/><path id="Star_Pattern_1" class="st3-chicagoflag star-pattern" d="M83 299h134v118H83z"/><pattern id="Star_Pattern_2_2_" xlink:href="#Star_Pattern_2_1_" patternTransform="scale(.5 -.5) rotate(45 -26158.634 -17790.492)"/><path id="Star_Pattern_2" class="st4-chicagoflag star-pattern" d="M223 299h134v118H223z"/><pattern id="Star_Pattern_3_2_" xlink:href="#Star_Pattern_3_1_" patternTransform="scale(.5 -.5) rotate(45 -26156.662 -17785.692)"/><path id="Star_Pattern_3" class="st5-chicagoflag star-pattern" d="M363 299h134v118H363z"/><pattern id="Star_Pattern_4_2_" xlink:href="#Star_Pattern_4_1_" patternTransform="scale(.5 -.5) rotate(45 -26154.691 -17780.893)"/><path id="Star_Pattern_4" class="st6-chicagoflag star-pattern" d="M503 299h134v118H503z"/><path id="White_Mask" class="st7-chicagoflag" d="M0 0v480h720V0H0zm202 270l-41-11-11 41-11-41-41 11 30-30-30-30 41 11 11-41 11 41 41-11-30 30 30 30zm140 0l-41-11-11 41-11-41-41 11 30-30-30-30 41 11 11-41 11 41 41-11-30 30 30 30zm140 0l-41-11-11 41-11-41-41 11 30-30-30-30 41 11 11-41 11 41 41-11-30 30 30 30zm140 0l-41-11-11 41-11-41-41 11 30-30-30-30 41 11 11-41 11 41 41-11-30 30 30 30z"/><path id="Blue_Stripes" class="st8-chicagoflag" d="M0 80h720v80H0v160h720v80H0V80z"/></svg>