<svg xmlns="http://www.w3.org/2000/svg" xmlns:xlink="http://www.w3.org/1999/xlink" viewBox="0 0 720 480"><pattern y="480" width="6.5" height="39" patternUnits="userSpaceOnUse" id="a" viewBox="0 -39 6.5 39" overflow="visible"><path fill="none" d="M0-39h6.5V0H0z"/><path fill="none" d="M0-39h6.5V0H0z"/><path fill="none" d="M0-39h6.5V0H0z"/><path fill="#661118" d="M0-39h3.3V0H0z"/><path fill="none" d="M3.3-39h3.3V0H3.3z"/></pattern><pattern y="480" width="6.5" height="39" patternUnits="userSpaceOnUse" id="c" viewBox="0 -39 6.5 39" overflow="visible"><path fill="none" d="M0-39h6.5V0H0z"/><path fill="none" d="M0-39h6.5V0H0z"/><path fill="none" d="M0-39h6.5V0H0z"/><path fill="#661118" d="M0-39h3.3V0H0z"/><path fill="none" d="M3.3-39h3.3V0H3.3z"/></pattern><pattern y="480" width="6.5" height="39" patternUnits="userSpaceOnUse" id="e" viewBox="0 -39 6.5 39" overflow="visible"><path fill="none" d="M0-39h6.5V0H0z"/><path fill="none" d="M0-39h6.5V0H0z"/><path fill="none" d="M0-39h6.5V0H0z"/><path fill="#661118" d="M0-39h3.3V0H0z"/><path fill="none" d="M3.3-39h3.3V0H3.3z"/></pattern><pattern y="480" width="6.5" height="39" patternUnits="userSpaceOnUse" id="g" viewBox="0 -39 6.5 39" overflow="visible"><path fill="none" d="M0-39h6.5V0H0z"/><path fill="none" d="M0-39h6.5V0H0z"/><path fill="none" d="M0-39h6.5V0H0z"/><path fill="#661118" d="M0-39h3.3V0H0z"/><path fill="none" d="M3.3-39h3.3V0H3.3z"/></pattern><path fill="#cc202e" d="M86 160h551v160H86z"/><pattern id="b" xlink:href="#a" patternTransform="scale(.5) rotate(-45 -17293.076 27349.827)"/><path class="star-pattern star-pattern-1" fill="url(#b)" d="M83 299h134v118H83z"/><pattern id="d" xlink:href="#c" patternTransform="scale(.5) rotate(-45 -17291.076 27345.041)"/><path class="star-pattern star-pattern-2" fill="url(#d)" d="M223 299h134v118H223z"/><pattern id="f" xlink:href="#e" patternTransform="scale(.5) rotate(-45 -17289.075 27340.252)"/><path class="star-pattern star-pattern-3" fill="url(#f)" d="M363 299h134v118H363z"/><pattern id="h" xlink:href="#g" patternTransform="scale(.5) rotate(-45 -17287.076 27335.466)"/><path class="star-pattern star-pattern-4" fill="url(#h)" d="M503 299h134v118H503z"/><path d="M0 0v480h720V0H0zm202 270l-41-11-11 41-11-41-41 11 30-30-30-30 41 11 11-41 11 41 41-11-30 30 30 30zm140 0l-41-11-11 41-11-41-41 11 30-30-30-30 41 11 11-41 11 41 41-11-30 30 30 30zm140 0l-41-11-11 41-11-41-41 11 30-30-30-30 41 11 11-41 11 41 41-11-30 30 30 30zm140 0l-41-11-11 41-11-41-41 11 30-30-30-30 41 11 11-41 11 41 41-11-30 30 30 30z" fill="#fff"/><path d="M0 80h720v80H0v160h720v80H0V80z" fill="#b3ddf2"/></svg>