<svg id="Layer_1" xmlns="http://www.w3.org/2000/svg" viewBox="0 0 68.7 68.7"><style>.st0{fill:#fff}.st1{fill:#cc202f}</style><circle class="st0" cx="34.3" cy="34.3" r="34.3"/><path class="st1" d="M41.7 38.6c-.1.7 0 2.1.3 2.8l7.8 17c.4.9.9 1.9.2 2.9-.4.6-1.1 1-1.9 1-1.3 0-1.9-1-2.4-1.8L36 44.2l-2.6 5.3c-.6 1.3-1.8 3-2.8 4l-5.3 5.7c-.7.7-1.2 1.3-2.2 1.3-.8 0-1.6-.5-2-1.2-.6-1.3.1-2.2.8-3l5.2-6.5c.6-.7 1.3-2.1 1.5-3l1.9-6.8c.3-1 .6-2.8.7-3.8l.9-10.4c-4.2 1.4-8.4 6.9-9.8 9.2-.6 1-1.1 1.8-2.4 1.8-.8 0-1.5-.4-1.9-1.1-.6-1.1-.2-2 .4-3 .3-.6 8.1-14.3 18.7-13.5 4.6.4 6 3.8 7 6.1.2.5.4 1 .7 1.5l6 10.9c.6 1 .2 2.4-.8 3-1 .6-2.3.3-2.9-.7l-4.5-7.1-.9 5.7M44.7 10.7c.5 2.9-1.5 5.5-4.3 6-2.9.5-5.5-1.5-6-4.3s1.5-5.5 4.3-6 5.5 1.4 6 4.3"/></svg>