<svg id="Layer_1" xmlns="http://www.w3.org/2000/svg" viewBox="0 0 218.7 56"><style>.st0{fill:#cc202e}</style><path class="st0" d="M209.2 32.3c-.1.7 0 2.1.3 2.8l7.8 17c.4.9.9 1.9.2 2.9-.4.6-1.1 1-1.9 1-1.3 0-1.9-1-2.4-1.8l-9.7-16.3-2.6 5.3c-.6 1.3-1.8 3-2.8 4l-5.3 5.7c-.7.7-1.2 1.3-2.2 1.3-.8 0-1.6-.5-2-1.2-.6-1.3.1-2.2.8-3l5.2-6.5c.6-.7 1.3-2.1 1.5-3l1.9-6.8c.3-1 .6-2.8.7-3.8l.9-10.4c-4.2 1.4-8.4 6.9-9.8 9.2-.6 1-1.1 1.8-2.4 1.8-.8 0-1.5-.4-1.9-1.1-.6-1.1-.2-2 .4-3 .3-.6 8.1-14.3 18.7-13.5 4.6.4 6 3.8 7 6.1.2.5.4 1 .7 1.5l6 10.9c.6 1 .2 2.4-.8 3-1 .6-2.3.3-2.9-.7l-4.5-7.1-.9 5.7zM212.1 4.4c.5 2.9-1.5 5.5-4.3 6-2.9.5-5.5-1.5-6-4.3s1.5-5.5 4.3-6c2.9-.5 5.5 1.4 6 4.3z"/><path d="M39.3 43.6c-1.6 2.5-3.1 5-6.5 7.3-1.8 1.3-6.1 3.8-12.1 3.8C9.2 54.7 0 46.4 0 31.8 0 19 8.7 8.9 20.9 8.9c5 0 9.4 1.7 12.6 4.3 3 2.4 4.4 4.8 5.6 6.9l-8.6 4.3c-.6-1.4-1.3-2.9-3.2-4.5-2.1-1.7-4.2-2.1-5.9-2.1-7 0-10.6 6.5-10.6 13.7 0 9.5 4.8 14.2 10.6 14.2 5.6 0 7.9-3.9 9.4-6.4l8.5 4.3zM75.9 10.2h11.5l-15 43.2h-11L46.6 10.2h11.5L67 40.9l8.9-30.7zM98.2 10.2H109v34.1h16.9v9.1H98.2V10.2zM136.8 10.2h10.6l9.4 15.9c3.4 6.1 4.5 8 6.5 11.8l-.5-27.7h10.3v43.2h-10.6l-8.1-13.6c-3.9-6.4-4.6-7.8-7.6-13.5l.3 27.2h-10.3V10.2z"/></svg>