<svg id="Layer_1" xmlns="http://www.w3.org/2000/svg" viewBox="0 0 147.4 45.8"><style>.st0{fill:#fff}</style><path class="st0" d="M39.3 34.7c-1.6 2.5-3.1 5-6.5 7.3-1.8 1.3-6.1 3.8-12.1 3.8C9.2 45.8 0 37.5 0 22.9 0 10.1 8.7 0 20.9 0c5 0 9.4 1.7 12.6 4.3 3 2.4 4.4 4.8 5.6 6.9l-8.6 4.3c-.6-1.4-1.3-2.9-3.2-4.5-2.1-1.7-4.2-2.1-5.9-2.1-7 0-10.6 6.5-10.6 13.7 0 9.5 4.8 14.2 10.6 14.2 5.6 0 7.9-3.9 9.4-6.4l8.5 4.3zM77.2 14.4V1.3h-1.3L67.1 32l-9-30.7H46.6l14.8 43.2h11.1l10.4-30.1z"/><g id="Layer_2"><path d="M72.4 1.3h10.8v34.1h16.9v9.1H72.4V1.3zM111.1 1.3h10.6l9.4 15.9c3.4 6.1 4.5 8 6.5 11.8L137 1.3h10.3v43.2h-10.6l-8.1-13.6c-3.9-6.4-4.6-7.8-7.6-13.5l.3 27.2H111V1.3z"/></g></svg>