<svg id="Layer_1" xmlns="http://www.w3.org/2000/svg" xmlns:xlink="http://www.w3.org/1999/xlink" viewBox="0 0 34 56"><style>.st0{clip-path:url(#SVGID_2_);fill:#cc202e}</style><defs><path id="SVGID_1_" d="M.1 0h33.2v56H.1z"/></defs><clipPath id="SVGID_2_"><use xlink:href="#SVGID_1_" overflow="visible"/></clipPath><path class="st0" d="M23.8 32.3c-.1.7 0 2.1.3 2.8l7.8 17c.4.9.9 1.9.2 2.9-.4.6-1.1 1-1.9 1-1.3 0-1.9-1-2.4-1.8l-9.7-16.3-2.6 5.3c-.6 1.3-1.8 3-2.8 4L7.5 53c-.7.7-1.2 1.3-2.2 1.3-.8 0-1.6-.5-2-1.2-.6-1.3.1-2.2.8-3l5.2-6.5c.6-.7 1.3-2.1 1.5-3l1.9-6.8c.3-1 .6-2.8.7-3.8l.9-10.4C10.1 21 6 26.5 4.6 28.8c-.6 1-1.1 1.8-2.4 1.8-.8 0-1.5-.4-1.9-1.1-.6-1.1-.2-2 .4-3C1 26 8.8 12.2 19.4 13.1c4.6.4 6 3.8 7 6.1.2.5.4 1 .7 1.5l6 10.9c.6 1 .2 2.4-.8 3-1 .6-2.3.3-2.9-.7l-4.5-7.1-1.1 5.5M26.7 4.4c.5 2.8-1.5 5.5-4.3 6-2.9.5-5.5-1.5-6-4.3s1.5-5.5 4.3-6c2.9-.5 5.6 1.4 6 4.3"/></svg>