<svg id="record-player" class="record-player" xmlns="http://www.w3.org/2000/svg" viewBox="0 0 783.6 702"><style>.st0{stroke-miterlimit:10;stroke-dasharray:0,12.0496,0,12.0496,0,12.0496}.st0,.st1,.st2{fill:none;stroke:#ce2030;stroke-width:5;stroke-linecap:round}.st1{stroke-miterlimit:10;stroke-dasharray:0,11.9403,0,11.9403,0,11.9403}.st2{stroke-dasharray:0,11.9406,0,11.9406,0,11.9406}.st2,.st3,.st4{stroke-miterlimit:10}.st3{fill:none;stroke:#ce2030;stroke-width:5;stroke-linecap:round;stroke-dasharray:0,11.8905,0,11.8905,0,11.8905}.st4{stroke-dasharray:0,12.0798,0,12.0798,0,12.0798}.st4,.st5,.st6{fill:none;stroke:#ce2030;stroke-width:5;stroke-linecap:round}.st5{stroke-miterlimit:10;stroke-dasharray:0,12.1212,0,12.1212,0,12.1212}.st6{stroke-dasharray:0,12.0702,0,12.0702,0,12.0702}.st6,.st7,.st8{stroke-miterlimit:10}.st7{fill:none;stroke:#ce2030;stroke-width:5;stroke-linecap:round;stroke-dasharray:0,12.0226,0,12.0226,0,12.0226}.st8{stroke-dasharray:0,11.7989,0,11.7989,0,11.7989}.st10,.st8,.st9{fill:none;stroke:#ce2030;stroke-width:5;stroke-linecap:round}.st9{stroke-miterlimit:10;stroke-dasharray:0,12.1805,0,12.1805,0,12.1805}.st10{stroke-dasharray:0,12.037,0,12.037,0,12.037}.st10,.st11,.st12{stroke-miterlimit:10}.st11{fill:none;stroke-width:8;stroke:#ce2030}.st12{stroke:#54afc3}.st12,.st13,.st14{fill:none;stroke-width:8}.st13{stroke-miterlimit:10;stroke:#eeba1d}.st14{stroke:#ce2031}.st14,.st15,.st16,.st17{stroke-miterlimit:10}.st15{fill:#ce2031;stroke-width:8;stroke:#ce2031}.st16,.st17{stroke:#fff}.st16{fill:#fff;stroke-width:8}.st17{stroke-width:4}.st17,.st18{fill:#ce2031}.st19{fill:none;stroke:#ce2031;stroke-width:2;stroke-miterlimit:10}</style><g id="Record" class="record"><g id="Dots" class="dots"><circle class="st0" cx="351" cy="351" r="333.7"/><circle class="st1" cx="351" cy="351" r="319.2"/><circle class="st2" cx="351" cy="351" r="290.8"/><circle class="st3" cx="351" cy="351" r="278.2"/><circle class="st4" cx="351" cy="351" r="248"/><circle class="st5" cx="351" cy="351" r="237.3"/><circle class="st6" cx="351" cy="351" r="207.5"/><circle class="st7" cx="351" cy="351" r="195.2"/><circle class="st8" cx="351" cy="351" r="169"/><circle class="st9" cx="351" cy="351" r="157"/><circle class="st10" cx="351" cy="351" r="143.7"/></g><g id="Circles" class="circles"><circle class="st11" cx="351" cy="351" r="347"/><circle class="st12" cx="351" cy="351" r="305.5"/><circle class="st13" cx="351" cy="351" r="263.6"/><circle class="st14" cx="351" cy="351" r="222.1"/><circle class="st12" cx="351" cy="351" r="181.7"/><circle class="st15" cx="351" cy="351" r="128.5"/><circle class="st16" cx="351" cy="351" r="7"/></g></g><g id="Arm" class="arm"><circle class="st15" cx="746.4" cy="45.5" r="33.1"/><circle class="st17" cx="746.4" cy="45.5" r="31"/><path class="st14" d="M737.2 77.5l-99.8 372.2"/><path transform="rotate(14.999 735.193 85.118)" class="st18" d="M727.7 79.2h14.9V91h-14.9z"/><g id="Layer_5"><path class="st15" d="M630.4 441h17.7v42.7h-17.7z"/><path class="st19" d="M627.6 451h-25.8"/></g></g></svg>