<svg id="Layer_1" xmlns="http://www.w3.org/2000/svg" viewBox="0 0 52.6 41.6"><style>.st0,.st1{fill:#fff}.st1{stroke:#1aa8b7;stroke-width:2;stroke-miterlimit:10}</style><path class="st0" d="M37.4 14.5c-.9 2.9-2.9 5.5-5.9 7.5l-.5 4.2c-.2 1.3-1.1 2.4-2.3 2.9-.4.1-.8.2-1.1.2-.9 0-1.8-.4-2.5-1l-2.8-2.8c-1.4.2-2.9.3-4.3.3h-.1v.5c0 3.6 2.4 6.9 6.2 9.1l.7 5.5c0 .4.3.6.6.8.3.1.7 0 1-.2l3.8-3.7c1.6.3 3.4.5 5.2.5 9.6 0 17.4-5.3 17.4-11.9-.2-6.2-6.8-11.2-15.4-11.9zm4.4 14"/><path class="st1" d="M23.6 24.3l3.8 3.7c.2.2.4.3.7.3.1 0 .2 0 .3-.1.3-.1.6-.4.6-.8l.7-5.5c3.8-2.2 6.2-5.4 6.2-9.1C35.9 6.3 28.1 1 18.4 1 8.8 1 1 6.3 1 12.9c0 6.6 7.8 11.9 17.4 11.9 1.8 0 3.6-.2 5.2-.5zm-7.5-11.4"/></svg>