<svg id="Layer_1" xmlns="http://www.w3.org/2000/svg" viewBox="0 0 49.4 45"><style>.st0,.st1{fill:#fff}.st1{stroke:#1aa8b7;stroke-width:.7071;stroke-miterlimit:10}.st2{fill:#1aa8b7}</style><path class="st0" d="M44.9 31.1V0H0v31.1h20.1V40h-8.9v4.2h22.2V40h-9.1v-8.9h20.6zM4.3 4.3h36.5v22.6H4.3V4.3z"/><path class="st1" d="M47.2 18.2h-9.7c-1 0-1.8.8-1.8 1.8v22.8c0 1 .8 1.8 1.8 1.8h9.7c1 0 1.8-.8 1.8-1.8V20.1c0-1-.8-1.9-1.8-1.9z"/><path class="st2" d="M37.5 22h9.9v17.7h-9.9zM41 19h2.2v.3H41z"/><circle class="st2" cx="42.3" cy="42.9" r="1.1"/></svg>