<svg id="Layer_1" xmlns="http://www.w3.org/2000/svg" viewBox="0 0 44.8 35.1"><style>.st0{fill:#fff}</style><circle class="st0" cx="33" cy="4.6" r="3"/><path class="st0" d="M44.2.2c-1.3-.8-2.4.9-2.4.9l-7 8.4-1.8.1-1.8-.1-7-8.4s-.7-1-1.6-1.1h-.2-.1c-.9.1-1.6 1.1-1.6 1.1l-7 8.4-1.8.1-1.9-.1-7-8.4S1.9-.6.6.2C.6.2-.6.5.3 1.9l7.9 9.7-2.9 13.3h2.5l-.2 8.7s-.1 1.4 1.7 1.5c0 0 1.9.1 2-1.6l.3-8.5h.5l.3 8.5c.1 1.7 2 1.6 2 1.6 1.8-.1 1.7-1.5 1.7-1.5l-.2-8.6h2.5l-2.9-13.3v-.1L22.4 3l6.9 8.5-.6 22s-.1 1.4 1.7 1.5c0 0 1.9.1 2-1.6l.4-11.9v-.9h.3v.9l.4 11.9c.1 1.7 2 1.6 2 1.6 1.8-.1 1.7-1.5 1.7-1.5l-.6-22 7.9-9.7c.9-1.3-.3-1.6-.3-1.6z"/><circle class="st0" cx="11.9" cy="4.6" r="3"/></svg>