<svg id="Layer_1" xmlns="http://www.w3.org/2000/svg" viewBox="0 0 42.1 40.7"><style>.st0{stroke:#fff;stroke-width:7.0192;stroke-miterlimit:10}.st0,.st1{fill:#eaba1f}.st2{stroke:#eaba1f;stroke-width:7.0192;stroke-miterlimit:10}.st2,.st3{fill:#fff}</style><path class="st0" d="M34.2 3.9c-5.1-1.8-8.8 2.8-9 2.9-.1-.2-3.9-4.7-9-2.9 0 0-5.9 1.9-4 8.1 0 0 .2 2.1 5.7 7.7l5.9 5.6s.6.7 1.4.7c.8 0 1.4-.7 1.4-.7l5.9-5.6c5.5-5.6 5.7-7.7 5.7-7.7 1.9-6.2-4-8.1-4-8.1z"/><path class="st1" d="M34.2 3.9c-5.1-1.8-8.8 2.8-9 2.9-.1-.2-3.9-4.7-9-2.9 0 0-5.9 1.9-4 8.1 0 0 .2 2.1 5.7 7.7l5.9 5.6s.6.7 1.4.7c.8 0 1.4-.7 1.4-.7l5.9-5.6c5.5-5.6 5.7-7.7 5.7-7.7 1.9-6.2-4-8.1-4-8.1z"/><g><path class="st2" d="M25.8 15.1c-5.1-1.8-8.8 2.8-9 2.9-.1-.2-3.9-4.7-9-2.9 0 0-5.9 1.9-4 8.1 0 0 .2 2.1 5.7 7.7l5.9 5.6s.6.7 1.4.7c.8 0 1.4-.7 1.4-.7l5.9-5.6c5.5-5.6 5.7-7.7 5.7-7.7 1.9-6.2-4-8.1-4-8.1z"/><path class="st3" d="M25.8 15.1c-5.1-1.8-8.8 2.8-9 2.9-.1-.2-3.9-4.7-9-2.9 0 0-5.9 1.9-4 8.1 0 0 .2 2.1 5.7 7.7l5.9 5.6s.6.7 1.4.7c.8 0 1.4-.7 1.4-.7l5.9-5.6c5.5-5.6 5.7-7.7 5.7-7.7 1.9-6.2-4-8.1-4-8.1z"/></g></svg>