<svg id="Layer_1" xmlns="http://www.w3.org/2000/svg" viewBox="0 0 63.1 55.8"><style>.st0{fill:#fff}.st1{fill:#cc2030}</style><path class="st0" d="M59.3 24.3c-1.4 0-2.6.8-3.3 1.9H32.8L43.6 7.4c.3.1.6.1.8.1 2.1 0 3.8-1.7 3.8-3.8S46.6 0 44.5 0s-3.8 1.7-3.8 3.8c0 .7.2 1.3.5 1.8l-11 19.1L19.3 6c.5-.6.7-1.4.7-2.2C20 1.7 18.3 0 16.2 0s-3.8 1.7-3.8 3.8 1.7 3.8 3.8 3.8c.2 0 .3 0 .5-.1l10.8 18.7H7c-.7-1.1-1.9-1.9-3.3-1.9-2 .1-3.7 1.7-3.7 3.8s1.7 3.8 3.8 3.8c1.6 0 2.9-1 3.5-2.3h20.1L16.8 47.9h-.3c-2.1 0-3.8 1.7-3.8 3.8s1.7 3.8 3.8 3.8 3.8-1.7 3.8-3.8c0-.9-.3-1.7-.8-2.3l10.7-18.6 10.9 18.9c-.5.6-.8 1.4-.8 2.3 0 2.1 1.7 3.8 3.8 3.8s3.8-1.7 3.8-3.8-1.7-3.8-3.8-3.8h-.3L33 29.6h22.9c.6 1.4 1.9 2.3 3.5 2.3 2.1 0 3.8-1.7 3.8-3.8s-1.8-3.8-3.9-3.8z"/><circle class="st1" cx="31.6" cy="27.2" r="14.4"/><path class="st0" d="M31.6 42.5c-8.4 0-15.3-6.9-15.3-15.3S23.1 12 31.6 12s15.3 6.9 15.3 15.3S40 42.5 31.6 42.5zm0-28.8c-7.5 0-13.5 6.1-13.5 13.5s6.1 13.5 13.5 13.5 13.5-6.1 13.5-13.5S39 13.7 31.6 13.7z"/><g><path class="st0" d="M34.1 18.1c-.7 0-1.5.5-2.6.5s-1.9-.5-2.6-.5c-.7 0-2.6.6-2.6 3.3 0 2.1 1 3.5 1.4 4.3.1.3.4.4.7.4.1 0 .2.1.2.2v.9h5.8v-.9c0-.1.1-.2.2-.2.3 0 .6-.2.7-.4.3-.8 1.4-2.2 1.4-4.3 0-2.7-1.9-3.3-2.6-3.3zM33.7 32.4h-4.4c-.2 0-.4.2-.4.4s.2.4.4.4h.4l.1.7h3.3l.1-.7h.4c.2 0 .4-.2.4-.4.1-.3-.1-.4-.3-.4zM30.1 34.9s.4.7 1.5.7 1.5-.7 1.5-.7l.1-.4H30l.1.4zM34.8 28h-6.6c-.2 0-.4.2-.4.4s.2.4.4.4h.8l.1.7H34l.1-.7h.7c.2 0 .4-.2.4-.4s-.2-.4-.4-.4zM34.5 30.2h-5.8c-.2 0-.4.2-.4.4s.2.4.4.4h.8l.1.7h4.1l.1-.7h.8c.2 0 .4-.2.4-.4-.2-.3-.3-.4-.5-.4z"/></g></svg>