<svg id="Layer_1" xmlns="http://www.w3.org/2000/svg" viewBox="0 0 64.3 57.3"><style>.st0{fill:#fff}.st1{fill:#49aec3}</style><path class="st0" d="M45.2 11.8c-7.6 0-10.3 4.2-10.6 13.4 2.3-3.3 6.2-5.1 12.6-5.1 10.9 0 17.1 6.6 17.1 17.3 0 11.5-5.9 19.9-20.1 19.9-15.4 0-21.4-8.9-21.4-27.9 0-19.2 8.8-27.9 20.9-27.9 7 0 12.7 1 17.4 4.2l-4.1 9c-3.5-2.1-7.5-2.9-11.8-2.9zm-1 35.2c6.1 0 8.6-4.2 8.6-9.5 0-6.2-2.9-8.5-8.3-8.5-4 0-7.6 1.6-9.9 5.6.6 7.9 2.9 12.4 9.6 12.4z"/><path class="st0" d="M16.8 30c-.2 0-.4-.1-.6-.3-.1-.2-.2-.4-.1-.6l1-4.6h-4.5l-.9 4.9c-.1.3-.4.6-.7.6H5.3c-.2 0-.4-.1-.6-.3-.1-.2-.2-.4-.1-.6l1.1-4.6H1.4c-.2 0-.4-.1-.6-.3-.1-.2-.2-.4-.1-.6l1-5c.1-.4.4-.6.8-.6H7l1.1-5.3H3.8c-.2 0-.4-.1-.6-.3s-.2-.4-.1-.6l1.1-5c.1-.3.4-.6.7-.6h4.5l.8-4.9c.1-.4.4-.6.7-.6h5.9c.2 0 .4.1.6.3.1.2.2.4.1.6l-1 4.6h4.4l.8-4.9c0-.3.3-.6.6-.6h5.9c.2 0 .4.1.6.3.1.2.2.4.1.6l-1 4.6h4.2c.2 0 .4.1.6.3.1.2.2.4.1.6l-1.1 5c-.1.3-.4.6-.7.6h-4.5l-1 5.3h4.3c.2 0 .4.1.6.3.1.2.2.4.1.6l-1.1 5c-.1.3-.4.6-.7.6h-4.5l-.9 4.9c-.1.3-.4.6-.7.6h-5.8zm1.9-11.6l1.2-6.1h-5l-1.2 6.1h5z"/><path class="st1" d="M28.2 1.4L27 7h5.1L31 12h-5l-1.4 6.7h5.2l-1.1 5h-5.1l-1 5.5h-5.8l1.2-5.5h-6l-1 5.5H5.3l1.3-5.5H1.4l1-5h5.1L9 12H3.8l1.1-5H10l.9-5.5h5.9L15.5 7h5.9l1-5.5h5.8m-7.4 10.1h-6.5l-1.5 7.5h6.6l1.4-7.5M28.2 0h-5.9c-.7 0-1.3.5-1.4 1.2l-.7 4.3h-2.9l.8-3.7c0-.1.1-.3.1-.4 0-.8-.6-1.4-1.4-1.4h-5.9c-.7 0-1.3.5-1.4 1.2l-.8 4.3H4.9c-.7 0-1.3.5-1.5 1.2l-1.1 5c-.1.4 0 .9.3 1.2.3.3.7.5 1.1.5h3.4l-.8 3.8H2.5c-.7 0-1.3.5-1.4 1.2l-1 5c-.1.4 0 .9.3 1.2.2.4.6.6 1 .6h3.3l-.9 3.7c-.1.4 0 .9.3 1.2.3.3.7.5 1.1.5H11c.7 0 1.3-.5 1.4-1.2l.8-4.3h3l-.8 3.9c-.1.4 0 .9.3 1.2.3.3.7.5 1.1.5h5.8c.7 0 1.3-.5 1.4-1.2l.8-4.3h3.9c.7 0 1.3-.5 1.4-1.1l1.1-5c.1-.4 0-.9-.3-1.2-.3-.3-.7-.5-1.1-.5h-3.4l.8-3.8h3.9c.7 0 1.3-.5 1.4-1.1l1.1-4.9c0-.1.1-.3.1-.4 0-.8-.6-1.4-1.4-1.4H29l.8-3.7c0-.1.1-.3.1-.4C29.7.6 29 0 28.2 0zm0 2.9zM15.4 13H19l-.9 4.6h-3.6l.9-4.6z"/></svg>