<svg id="Layer_1" xmlns="http://www.w3.org/2000/svg" viewBox="0 0 81.4 36.5"><style>.st0,.st1{fill:#fff}.st1{stroke:#1aa8b7;stroke-width:1.4654;stroke-miterlimit:10}.st2{fill:#1aa8b7}.st3{fill:#fff;stroke:#14a8b7;stroke-width:.5;stroke-miterlimit:10}</style><path class="st0" d="M12.7 29.7c4.5 0 6.1-1.7 6.1-5.4 0-3.6-2.5-4.5-6.9-4.5-2.1 0-4.7.5-7.9 1.5l-2.6-5.8L3.1.6h20.4v6.8H9.3l-1.1 7.4c2-.6 4.1-.8 5.9-.8 7.8 0 12.3 4.4 12.3 11 0 6.4-4 11.6-13.4 11.6-5-.1-9.5-1.2-13-3.6l2.6-5.8c3 1.7 6.5 2.5 10.1 2.5zM29.2 18.2C29.2 5.8 33.1 0 43.1 0s14 5.8 14 18.2c0 12.4-3.9 18.2-14 18.2-10 .1-13.9-5.7-13.9-18.2zm20.2 0c0-7.6-1.2-11.5-6.2-11.5-5.1 0-6.3 3.9-6.3 11.5 0 7.5 1.2 11.5 6.3 11.5 5 0 6.2-4 6.2-11.5z"/><path class="st1" d="M48 12.3c0-5.5 2.1-8.1 7.5-8.1 5.3 0 7.5 2.6 7.5 8.1s-2.2 8.1-7.5 8.1-7.5-2.6-7.5-8.1z"/><path class="st2" d="M58.5 12.3c0-3-.5-4.7-3-4.7s-3 1.8-3 4.7c0 3 .5 4.7 3 4.7s3-1.8 3-4.7z"/><path class="st3" d="M60.3 31.4l-3.1-.9L68.4 4.2l3.1.9z"/><g><path class="st1" d="M65.8 23.2c0-5.5 2.1-8.1 7.4-8.1 5.3 0 7.5 2.6 7.5 8.1s-2.1 8.1-7.5 8.1c-5.3.1-7.4-2.5-7.4-8.1z"/><path class="st2" d="M76.2 23.2c0-3-.4-4.7-3-4.7-2.5 0-3 1.8-3 4.7s.5 4.7 3 4.7c2.6.1 3-1.7 3-4.7z"/></g></svg>