<svg id="Layer_1" xmlns="http://www.w3.org/2000/svg" viewBox="0 0 29.8 50.1"><style>.st0{fill:#fff}</style><path class="st0" d="M21.3 28.9c-.1.6 0 1.9.3 2.5l7 15.3c.4.8.8 1.7.2 2.6-.4.6-1 .9-1.7.9-1.2 0-1.7-.9-2.1-1.6L16.3 34l-2.4 4.8c-.5 1.1-1.6 2.7-2.5 3.6l-4.7 5.1c-.6.7-1.1 1.2-2 1.2-.8 0-1.4-.4-1.8-1.1-.5-1.2.1-2 .7-2.7L8.3 39c.5-.6 1.2-1.9 1.4-2.7l1.7-6.1c.3-.9.5-2.5.6-3.4l.8-9.3c-3.8 1.3-7.5 6.2-8.7 8.3-.5.9-1 1.6-2.1 1.6-.7 0-1.3-.4-1.7-1-.6-1-.2-1.8.3-2.6.3-.5 7.3-12.8 16.7-12.1 4.1.3 5.4 3.4 6.2 5.4.2.5.4.9.6 1.3l5.4 9.7c.5.9.2 2.1-.7 2.7-.9.5-2.1.3-2.6-.6l-4-6.4-.9 5.1zM23.9 3.9c.4 2.6-1.3 5-3.9 5.4-2.6.4-5-1.3-5.4-3.9-.4-2.6 1.3-5 3.9-5.4 2.6-.4 5 1.4 5.4 3.9z"/></svg>