<svg id="Layer_1" xmlns="http://www.w3.org/2000/svg" viewBox="0 0 62.1 45.7"><style>.st0{fill:none;stroke:#eaba1f;stroke-width:3;stroke-miterlimit:10}.st1{fill:#fff}</style><path class="st0" d="M31.6 16.5s-6.6-.8-5.5 7.5c0 0-1.8.5.6 4.6 0 0 1.1 2.9 1.7 3.1 0 0 .3.7-5.7 2.7 0 0-2.9.5-4 5.4 0 0-.9 2.3 1.7 3.1 0 0 3.2 1 11.5 1.2l-.3-27.6z"/><path class="st0" d="M31.5 16.4s6.6-.8 5.5 7.5c0 0 1.8.5-.6 4.6 0 0-1.1 2.9-1.7 3.1 0 0-.3.7 5.7 2.7 0 0 2.9.5 4 5.4 0 0 .9 2.3-1.7 3.1 0 0-3.2 1-11.5 1.2l.3-27.6z"/><path class="st1" d="M44.4 39.9c-1.2-4.9-4-5.4-4-5.4-6-2-5.7-2.7-5.7-2.7.6-.2 1.7-3.1 1.7-3.1 2.4-4.2.6-4.6.6-4.6 1.1-8.3-5.5-7.5-5.5-7.5-.7-.1-6.5-.3-5.5 7.5 0 0-1.8.5.6 4.6 0 0 1.1 2.9 1.7 3.1 0 0 .3.7-5.7 2.7 0 0-2.9.5-4 5.4 0 0-.9 2.3 1.7 3.1 0 0 3.2 1 11.5 1.2C39.8 44 43 43 43 43c2.3-.8 1.4-3.1 1.4-3.1z"/><path transform="rotate(-37.234 16.68 8.767)" class="st1" d="M16 4.4h1.4v8.7H16z"/><path transform="rotate(-60.218 7.918 19.538)" class="st1" d="M7.2 15.2h1.4v8.7H7.2z"/><path class="st1" d="M0 32.2h8.7v1.4H0zM30.3 0h1.4v8.7h-1.4zM53.4 32.2h8.7v1.4h-8.7z"/><path transform="rotate(-25.924 54.13 19.52)" class="st1" d="M49.8 18.8h8.7v1.4h-8.7z"/><path class="st1" d="M43.2 12.6l-1.1-.9 5.5-6.8 1 .9z"/></svg>