<svg id="Layer_1" xmlns="http://www.w3.org/2000/svg" viewBox="0 0 52.9 55.5"><style>.st0{fill:#fff}.st1{fill:none;stroke:#fff;stroke-width:2;stroke-miterlimit:10}</style><path class="st0" d="M15.3 11.6s-2.8-3.9-6.7-.9L1.5 16s-.8.4-.9 1.5v.4L0 26.1s-.1 1.9 1.9 2.3c0 0 1.7.1 2.3-1.9l.6-7.7 4-2.9.4 12.7-4.5 18.7s-.5 2.2 1.9 3c0 0 2.2.5 3-1.9l4.3-17.9 4.9 2.3-.4 6.6s-.1 2.3 2.4 2.7c0 0 2.5.1 2.7-2.4l.5-8.3s0-1.6-1.4-2.4l-6.4-3.3-.2-6.8 2 2.4s.5.6 1.4.7l7.7.9s1.8-.2 2.1-1.9c0 0 0-2.1-1.9-2.3l-6.6-.7-5.4-6.4z"/><path class="st1" d="M1 54.5h14.7V46H29v-8.2h12v-7.3h11.9"/><path class="st0" d="M17.3 3.2c.3 2.1-1.1 4.1-3.2 4.4-2.1.4-4.1-1-4.4-3.1C9.4 2.4 10.8.4 12.9.1c2.1-.4 4 1 4.4 3.1z"/></svg>