<svg id="Layer_1" xmlns="http://www.w3.org/2000/svg" viewBox="0 0 47.1 37.6"><style>.st0{fill:#fff}.st1{fill:#cc2030}</style><path class="st0" d="M45.6 18.3c1.2-3.7 3.1-9.4-1-12-1.4-.9-2.7-1.3-4.1-1.3-1.5 0-2.7.5-3.6.9-.4.2-.9.4-1.1.4-.2 0-.7-.2-1.1-.4-1-.4-2.2-.9-3.7-.9-1.4 0-2.7.4-4.1 1.3-4.1 2.6-2.2 8.2-1 12 .4 1.2.7 2.3.8 2.8.1 1 0 2.4-.1 3.8-.2 2.2-.4 4.5.2 6.5.9 3.3 3.8 5.7 3.9 5.8.3.2.6.3.9.4h.1c.9 0 1.6-.7 1.6-1.6 0-.1 0-.3-.1-.4-.1-.8-.8-5.3.2-8.1.8-2.1 1.9-3.2 2.4-3.5.5.3 1.6 1.4 2.4 3.5 1.1 3.1.2 8.2.2 8.2-.1.7.2 1.3.7 1.6.2.1.5.2.8.2.4 0 .7-.1 1-.4.1-.1 3-2.5 3.9-5.8.5-2 .3-4.3.2-6.5-.1-1.4-.2-2.7-.1-3.8 0-.5.3-1.6.7-2.7z"/><path class="st1" d="M41 7c3.4-1 5.3 7.7 3.1 9.1C43 10.5 37.6 7.9 41 7z"/><path class="st0" d="M4.3 35.7c-.9 0-1.7-.3-2.3-1-.6-.6-1-1.5-1-2.3s.3-1.7 1-2.3l9.2-9.2c-3-5.1-2.2-11.7 2-16C15.7 2.4 19 1 22.6 1s6.8 1.4 9.3 3.9c5.1 5.1 5.1 13.5 0 18.6-2.5 2.5-5.8 3.9-9.3 3.9-2.4 0-4.7-.6-6.7-1.8l-9.2 9.2c-.7.6-1.5.9-2.4.9z"/><path class="st1" d="M22.6 2c3.1 0 6.2 1.2 8.6 3.6 4.8 4.8 4.8 12.5 0 17.2-2.4 2.4-5.5 3.6-8.6 3.6-2.4 0-4.8-.7-6.8-2.1L5.9 34c-.5.5-1 .7-1.6.7s-1.2-.2-1.6-.7c-.9-.9-.9-2.4 0-3.3l9.8-9.8C9.3 16.2 9.8 9.8 13.9 5.6 16.3 3.2 19.4 2 22.6 2m0-2c-3.8 0-7.3 1.5-10 4.1C8.1 8.5 7.2 15.3 10 20.7l-8.7 8.7c-1.7 1.7-1.7 4.4 0 6.1.8.8 1.9 1.3 3 1.3s2.2-.4 3-1.3l8.7-8.7c2 1 4.2 1.6 6.5 1.6 3.8 0 7.3-1.5 10-4.1 2.7-2.7 4.1-6.2 4.1-10s-1.5-7.3-4.1-10C29.9 1.5 26.3 0 22.6 0z"/><ellipse transform="rotate(-45.001 22.552 14.168)" class="st1" cx="22.6" cy="14.2" rx="9" ry="9"/></svg>