<svg id="Layer_1" xmlns="http://www.w3.org/2000/svg" viewBox="0 0 52.7 52.6"><style>.st0{stroke:#fff;stroke-width:.8357;stroke-miterlimit:10}.st0,.st1{fill:#fff}.st2{fill:none;stroke:#eaba1f;stroke-width:3;stroke-miterlimit:10}</style><path transform="rotate(-30.031 15.193 6.908)" class="st0" d="M14.6 3.3h1.2v7.3h-1.2z"/><path transform="rotate(-60 7.035 15.073)" class="st0" d="M6.4 11.4h1.2v7.3H6.4z"/><path class="st0" d="M.4 25.6h7.3v1.2H.4zM9.9 35l.6 1.1-6.3 3.6-.6-1z"/><path transform="rotate(-60.045 15.21 45.53)" class="st0" d="M11.6 44.9h7.3v1.2h-7.3z"/><path class="st0" d="M25.8 44.9H27v7.3h-1.2zM25.8.4H27v7.3h-1.2z"/><path transform="rotate(-29.991 37.505 45.518)" class="st0" d="M36.9 41.9h1.2v7.3h-1.2z"/><path transform="rotate(-60.048 45.662 37.354)" class="st0" d="M45.1 33.7h1.2V41h-1.2z"/><path class="st0" d="M45 25.6h7.3v1.2H45z"/><path transform="rotate(-30.049 45.657 15.06)" class="st0" d="M42 14.5h7.3v1.2H42z"/><path class="st0" d="M36.2 10.3l-1-.5 3.6-6.3 1 .5z"/><g><path class="st1" d="M26.8 27.9s-1.8 2.2-2.9-.1c0 0-.2-2.4 2.1-2.5 0 0 3.1-.2 3.6 2.6 0 0 1.7 3.9-2.3 5.3 0 0-6.6 3.6-8.7-4.1 0 0-3.3-7 4.6-9.6 0 0 13.6-3.9 12.8 13.1 0 0-.3 4.8 3.1-4.6 0 0-2.1-13.9-13.1-12.4 0 0-12.4 0-11.9 12.5 0 0 1.4 9.9 9.5 9.5 0 0 12.1.5 10.5-8.9 0 0-1.8-10.2-9.5-6.9 0 0-7.2 1.1-3.9 8 0 0 2.4 3.8 5.8 2.4.1 0 1.8-1.1.3-4.3z"/></g><path class="st2" d="M25.5 27.8c-1.7-1.2.4-1.6.4-1.6 3.8-.6 2.2 4.1 2.2 4.1-3.8 5.3-8.5-.8-8.5-.8-3-7 4.2-9.2 4.2-9.2 13.5-2.8 10.8 12.8 10.8 12.8s-.7 2.5-1.3 3.5"/></svg>