<?xml version="1.0" encoding="utf-8"?>
<!-- Generator: Adobe Illustrator 21.0.0, SVG Export Plug-In . SVG Version: 6.00 Build 0)  -->
<svg version="1.1" xmlns="http://www.w3.org/2000/svg" xmlns:xlink="http://www.w3.org/1999/xlink" x="0px" y="0px"
	 viewBox="0 0 135.73 230.27" style="enable-background:new 0 0 135.73 230.27;" xml:space="preserve">
<style type="text/css">
	.st0{display:none;fill:none;stroke:#F9BE00;stroke-miterlimit:10;}
	.st1{display:none;fill:none;stroke:#00A5B5;stroke-miterlimit:10;}
	.st2{display:none;fill:none;stroke:#FF4338;stroke-miterlimit:10;}
	.st3{display:none;fill:none;stroke:#9F958B;stroke-miterlimit:10;}
	.st4{fill:#CD202E;}
	.st5{display:none;}
	.st6{display:inline;fill:#FF4338;}
	.st7{display:inline;fill:#FFFFFF;}
	.st8{display:inline;}
	.st9{fill:#00A5B5;}
	.st10{fill:#FFFFFF;}
	.st11{display:none;fill-rule:evenodd;clip-rule:evenodd;fill:#F9BE00;stroke:#FFFFFF;stroke-miterlimit:10;}
	.st12{display:inline;fill:#9F958B;}
	.st13{fill:#004750;}
	.st14{fill:none;stroke:#FF4338;stroke-miterlimit:10;}
	.st15{fill:#FF4338;stroke:#FF4338;stroke-miterlimit:10;}
	.st16{fill:#F9BE00;stroke:#F9BE00;stroke-miterlimit:10;}
	.st17{fill:none;stroke:#F9BE00;stroke-miterlimit:10;}
	.st18{fill:#00A5B5;stroke:#00A5B5;stroke-miterlimit:10;}
	.st19{fill:none;stroke:#00A5B5;stroke-miterlimit:10;}
	.st20{fill:#9F958B;stroke:#9F958B;stroke-miterlimit:10;}
	.st21{fill:none;stroke:#9F958B;stroke-miterlimit:10;}
</style>
<g id="lines">
	<polyline id="line-creativity" class="st0" points="102.42,80.6 149.27,80.6 149.27,138.48 190.49,138.48 	"/>
	<polyline id="line-delivery" class="st1" points="-29.68,137.26 22.05,137.26 22.05,210.43 	"/>
	<polyline id="line-analytics" class="st2" points="184.38,-50.41 98.21,-50.41 98.21,16.57 	"/>
	<polyline id="line-strategy" class="st3" points="-21.03,-50.41 65.14,-50.41 65.14,16.57 	"/>
</g>
<g id="buddy_1_">
	<path id="body" class="st4" d="M96.93,132.49c-0.54,2.95,0.15,8.52,1.41,11.24l32,69.44c1.62,3.54,3.5,7.57,0.71,11.95
		c-1.63,2.56-4.52,4.14-7.56,4.14l0,0c-5.38,0-7.79-4.08-9.77-7.34l-39.55-66.47l-10.72,21.76c-2.49,5.1-7.48,12.34-11.33,16.46
		l-21.56,23.26c-2.82,3.02-5.01,5.36-9.14,5.36c-3.44,0-6.56-1.97-8.08-5.07c-2.5-5.25,0.54-9.04,3.24-12.39l21.28-26.36
		c2.28-2.84,5.3-8.61,6.29-12.13l7.91-27.61c1.14-4.05,2.48-11.26,2.82-15.45l3.5-42.41c-17.22,5.69-34.09,28.19-39.8,37.61
		c-2.43,3.94-4.47,7.34-9.6,7.35H8.96c-3.13,0-6.09-1.68-7.69-4.41c-2.64-4.48-0.7-8,1.55-12.06c1.3-2.35,33.14-58.49,76.07-55.11
		c18.56,1.59,24.47,15.53,28.4,24.76c0.92,2.15,1.79,4.24,2.81,6.11l24.5,44.27c2.34,4.24,0.94,9.73-3.22,12.18
		c-4.18,2.47-9.44,1.31-12.01-2.79l-18.24-29.11L96.93,132.49z"/>
	<path id="head" class="st4" d="M108.48,18.89c1.93,11.62-5.97,22.59-17.58,24.49C79.25,45.3,68.3,37.4,66.43,25.78
		C64.51,14.17,72.36,3.2,83.97,1.3C95.6-0.62,106.56,7.27,108.48,18.89z"/>
</g>
<g id="rollovers">
	<g id="rollover-analytics" class="rollover-block rollover-analytics st5" data-rollover-slug="analytics">
		<path class="st6" d="M87.92,44.16c-0.57,0-0.57,0-0.64-7.16c-0.04-4-0.06-9.33-0.08-14.66c-0.04-10.66-0.04-21.33-0.04-21.33
			l0-0.51l0.51,0c5.83,0.06,11.29,2.39,15.37,6.56c4.08,4.17,6.29,9.67,6.23,15.5c-0.11,11.85-9.48,21.34-21.34,21.59H87.92
			L87.92,44.16z"/>
		<path class="st7" d="M87.66,1.01c11.78,0.12,21.23,9.78,21.11,21.55c-0.1,11.55-9.4,20.85-20.85,21.09h0
			C87.69,43.66,87.66,1.01,87.66,1.01 M86.66,0l0,1.01c0,0,0.01,10.66,0.04,21.33c0.02,6.19,0.05,11.13,0.08,14.67
			c0.02,2,0.04,3.67,0.06,4.84c0.01,0.59,0.02,1.06,0.04,1.38c0.02,0.47,0.06,1.44,1.04,1.44c12.15-0.26,21.74-9.96,21.85-22.08
			c0.06-5.96-2.2-11.6-6.38-15.86c-4.17-4.27-9.76-6.65-15.72-6.71L86.66,0L86.66,0z"/>
	</g>
	<g id="rollover-delivery" class="rollover-block rollover-delivery st5" data-rollover-slug="delivery">
		<g class="st8">
			<path class="st9" d="M21.75,222.79c-3.65,0-6.92-2.05-8.53-5.35c-2.65-5.54,0.65-9.64,3.3-12.92l11.99-14.85l16.37,12.91
				l-13.63,14.7C28.38,220.35,26.1,222.79,21.75,222.79z"/>
			<path class="st10" d="M28.6,190.36l15.55,12.26l-13.26,14.3c-2.82,3.02-5.01,5.36-9.14,5.36c-3.44,0-6.56-1.97-8.08-5.07
				c-2.5-5.25,0.54-9.04,3.24-12.39L28.6,190.36 M28.44,188.96l-0.62,0.77l-11.68,14.47c-2.74,3.4-6.14,7.63-3.36,13.45
				c1.69,3.48,5.13,5.64,8.98,5.64c4.57,0,7.02-2.63,9.87-5.68l13.26-14.3l0.74-0.79l-0.85-0.67l-15.55-12.26L28.44,188.96
				L28.44,188.96z"/>
		</g>
		<g class="st8">
			<path class="st9" d="M123.82,229.77c-5.61,0-8.12-4.15-10.13-7.49l-11.95-20.08l19.22-11.32l10.18,22.09
				c1.7,3.72,3.59,7.85,0.67,12.43C130.08,228.09,127.02,229.77,123.82,229.77z"/>
			<path class="st10" d="M120.72,191.58l9.95,21.59c1.62,3.54,3.5,7.57,0.71,11.95c-1.63,2.56-4.52,4.14-7.56,4.14
				c-5.38,0-7.79-4.08-9.77-7.34l-11.63-19.56L120.72,191.58 M121.17,190.16l-0.95,0.56l-18.31,10.78l-0.87,0.51l0.51,0.86
				l11.63,19.56l0.06,0.1c1.97,3.26,4.67,7.73,10.56,7.73c3.37,0,6.59-1.76,8.41-4.6c3.06-4.81,1.03-9.26-0.61-12.84l-0.03-0.07
				l-9.95-21.59L121.17,190.16L121.17,190.16z"/>
		</g>
	</g>
	<path id="rollover-creativity" class="rollover-block rollover-creativity st11" data-rollover-slug="creativity" d="M109.74,91.06c4.44-4.5,4.43-11.79,0-16.29c-2.27-2.3-5.25-3.42-8.23-3.37
		c-4.15,0.07-11.01,5.65-11.01,5.65s-7.05-5.65-11.3-5.65c-2.9,0.01-5.8,1.13-8.01,3.37c-4.44,4.5-4.44,11.79,0,16.29l19.27,19.54
		L109.74,91.06z"/>
	<g id="rollover-strategy" class="rollover-block rollover-strategy st5" data-rollover-slug="strategy">
		<path class="st12" d="M105.8,36.71c-11.51,0-12.82-1.94-14.91-7.54c-0.71-1.9-0.99-3.53-1.21-4.83c-0.41-2.41-0.62-3.17-2.23-3.17
			c-1.61,0-1.81,0.76-2.22,3.17c-0.22,1.31-0.5,2.93-1.21,4.83c-2.09,5.6-3.4,7.54-14.91,7.54c-10.26,0-10.79-8.44-11.02-12.04
			c-0.04-0.66-0.08-1.23-0.15-1.52c-0.48-1.8-1.53-2.58-2.54-3.34l-0.19-0.14c-0.88-0.66-1.02-1.71-0.77-2.47
			c0.19-0.57,0.6-0.93,1.07-0.93c0.13-0.01,0.71-0.17,1.32-0.33c2.46-0.67,7.58-2.06,12.7-2.06c3.88,0,7.98,0.78,11.6,1.47
			c2.59,0.49,4.83,0.92,6.33,0.92c1.5,0,3.74-0.43,6.33-0.92c3.62-0.69,7.73-1.47,11.6-1.47c5.12,0,10.24,1.39,12.7,2.06
			c0.61,0.17,1.19,0.32,1.33,0.33c0,0,0,0,0,0c0.46,0,0.87,0.36,1.06,0.93c0.25,0.75,0.11,1.81-0.77,2.47l-0.19,0.14
			c-1.02,0.76-2.06,1.54-2.54,3.34c-0.08,0.29-0.11,0.86-0.15,1.52C116.59,28.27,116.06,36.71,105.8,36.71z M99.42,17.92
			c-1.78,0-3.38,0.78-4.5,2.19c-1.14,1.43-1.59,3.3-1.2,5.02c1.16,4.86,3.95,7.43,8.05,7.43h3.74c3.95,0,7.16-3.28,7.16-7.31
			c0.12-3.31-0.28-5.24-1.28-6.29c-0.67-0.69-1.64-1.03-2.97-1.03H99.42z M66.49,17.92c-1.33,0-2.3,0.34-2.97,1.03
			c-1.01,1.05-1.41,2.98-1.28,6.27c0,4.05,3.21,7.33,7.16,7.33h3.74c4.1,0,6.88-2.57,8.05-7.43c0.39-1.71-0.06-3.58-1.2-5.01
			c-1.12-1.41-2.72-2.19-4.5-2.19H66.49z"/>
		<path class="st7" d="M105.38,14.39c6.66,0,13.35,2.39,14.02,2.39s1.11,1.67,0,2.5c-1.11,0.83-2.36,1.67-2.91,3.75
			c-0.56,2.08,0.97,13.18-10.69,13.18c-11.66,0-12.52-2.06-14.45-7.21c-1.92-5.14-0.61-8.33-3.9-8.33c-3.29,0-1.98,3.19-3.9,8.33
			c-1.93,5.15-2.79,7.21-14.45,7.21c-11.66,0-10.13-11.1-10.69-13.18c-0.56-2.08-1.8-2.91-2.91-3.75c-1.11-0.83-0.67-2.5,0-2.5
			s7.36-2.39,14.02-2.39c6.66,0,14.29,2.39,17.93,2.39C91.09,16.78,98.73,14.39,105.38,14.39 M101.77,33.05h3.74
			c4.21,0,7.66-3.52,7.66-7.82c0.17-4.61-0.54-7.82-4.75-7.82h-8.99c-4.21,0-7.04,4.07-6.18,7.82
			C94.47,30.4,97.56,33.05,101.77,33.05 M69.4,33.05h3.74c4.21,0,7.3-2.65,8.53-7.82c0.86-3.74-1.97-7.82-6.18-7.82H66.5
			c-4.21,0-4.92,3.21-4.75,7.82C61.74,29.53,65.19,33.05,69.4,33.05 M105.38,13.39c-3.92,0-8.05,0.79-11.7,1.48
			c-2.57,0.49-4.78,0.91-6.24,0.91c-1.45,0-3.67-0.42-6.24-0.91c-3.64-0.69-7.77-1.48-11.7-1.48c-5.19,0-10.35,1.4-12.83,2.08
			c-0.52,0.14-1.07,0.29-1.23,0.32c-0.67,0.02-1.24,0.5-1.5,1.27c-0.31,0.92-0.14,2.22,0.94,3.03l0.19,0.14
			c0.99,0.74,1.93,1.43,2.36,3.06c0.06,0.24,0.1,0.81,0.14,1.42c0.24,3.74,0.79,12.51,11.52,12.51c11.97,0,13.29-2.27,15.38-7.86
			c0.73-1.94,1.01-3.6,1.23-4.92c0.43-2.5,0.59-2.76,1.73-2.76c1.14,0,1.31,0.26,1.73,2.76c0.23,1.33,0.51,2.98,1.23,4.92
			c2.09,5.59,3.42,7.86,15.38,7.86c10.73,0,11.28-8.77,11.52-12.51c0.04-0.61,0.07-1.18,0.14-1.42c0.43-1.63,1.37-2.33,2.36-3.06
			l0.19-0.14c1.08-0.81,1.25-2.1,0.94-3.03c-0.26-0.77-0.83-1.25-1.5-1.27c-0.16-0.03-0.71-0.17-1.23-0.32
			C115.74,14.79,110.57,13.39,105.38,13.39L105.38,13.39z M101.77,32.05c-4.85,0-6.79-3.83-7.56-7.05c-0.36-1.55,0.06-3.27,1.1-4.58
			c1.03-1.29,2.49-2,4.11-2h8.99c1.19,0,2.04,0.29,2.61,0.87c0.91,0.94,1.26,2.76,1.14,5.9c0,3.79-2.99,6.85-6.66,6.85H101.77
			L101.77,32.05z M69.4,32.05c-3.67,0-6.66-3.06-6.66-6.82c-0.12-3.18,0.24-5,1.14-5.94c0.57-0.59,1.42-0.87,2.61-0.87h8.99
			c1.62,0,3.08,0.71,4.11,2c1.05,1.31,1.46,3.03,1.1,4.59c-0.77,3.21-2.7,7.04-7.56,7.04H69.4L69.4,32.05z"/>
	</g>
</g>
<g id="boxes" class="st5">
	<g id="box-analytics" class="st8">
		<text transform="matrix(1 0 0 1 208.0264 -18.0551)"><tspan x="0" y="0" class="st13" style="font-family:'EnzoOT-Medi'; font-size:12px;">KPI Identification</tspan><tspan x="6.95" y="18.5" class="st13" style="font-family:'EnzoOT-Medi'; font-size:12px;">Campaign ROI</tspan><tspan x="-8.22" y="37" class="st13" style="font-family:'EnzoOT-Medi'; font-size:12px;">Dashboard Creation</tspan><tspan x="-9.63" y="55.5" class="st13" style="font-family:'EnzoOT-Medi'; font-size:12px;">Campaign Reporting</tspan><tspan x="10.2" y="74" class="st13" style="font-family:'EnzoOT-Medi'; font-size:12px;">Optimization</tspan><tspan x="-21.26" y="92.5" class="st13" style="font-family:'EnzoOT-Medi'; font-size:12px;">Advanced Data Modeling</tspan><tspan x="16.25" y="111" class="st13" style="font-family:'EnzoOT-Medi'; font-size:12px;">Attribution</tspan></text>
		<rect x="176.19" y="-43.72" class="st14" width="152.22" height="152.22"/>
		<rect x="175.89" y="-63.1" class="st15" width="152.8" height="27"/>
		<rect x="209.21" y="-54.41" style="fill:none;" width="86.16" height="15.5"/>
		<text transform="matrix(1 0 0 1 215.7893 -44.3628)" class="st10" style="font-family:'EnzoOT-Bold'; font-size:14px;">Analytics </text>
	</g>
	<g id="box-creative" class="st8">
		<text transform="matrix(1 0 0 1 207.936 170.8419)"><tspan x="0" y="0" class="st13" style="font-family:'EnzoOT-Medi'; font-size:12px;">Art/Design/Copy </tspan><tspan x="17.53" y="18.5" class="st13" style="font-family:'EnzoOT-Medi'; font-size:12px;">TV/Video  </tspan><tspan x="-13.16" y="37" class="st13" style="font-family:'EnzoOT-Medi'; font-size:12px;">Content Development</tspan><tspan x="4.93" y="55.5" class="st13" style="font-family:'EnzoOT-Medi'; font-size:12px;">Video Graphics</tspan><tspan x="14.41" y="74" class="st13" style="font-family:'EnzoOT-Medi'; font-size:12px;">Animations</tspan><tspan x="-6.65" y="92.5" class="st13" style="font-family:'EnzoOT-Medi'; font-size:12px;">Full Digital Services</tspan><tspan x="-2.66" y="111" class="st13" style="font-family:'EnzoOT-Medi'; font-size:12px;">Print/OOH/Transit</tspan></text>
		<rect x="175.89" y="124.98" class="st16" width="152.8" height="27"/>
		<rect x="209.21" y="134.48" style="fill:none;" width="86.16" height="15.5"/>
		<text transform="matrix(1 0 0 1 220.7238 144.5342)"><tspan x="0" y="0" class="st10" style="font-family:'EnzoOT-Bold'; font-size:14px;">C</tspan><tspan x="8.16" y="0" class="st10" style="font-family:'EnzoOT-Bold'; font-size:14px;">R</tspan><tspan x="17.29" y="0" class="st10" style="font-family:'EnzoOT-Bold'; font-size:14px;">EAT</tspan><tspan x="42.21" y="0" class="st10" style="font-family:'EnzoOT-Bold'; font-size:14px;">I</tspan><tspan x="46.31" y="0" class="st10" style="font-family:'EnzoOT-Bold'; font-size:14px;">VE</tspan></text>
		<rect x="175.89" y="151.87" class="st17" width="152.8" height="144"/>
	</g>
	<g id="box-delivery" class="st8">
		<text transform="matrix(1 0 0 1 -128.6305 170.8417)"><tspan x="0" y="0" class="st13" style="font-family:'EnzoOT-Medi'; font-size:12px;">Video Shoots</tspan><tspan x="-10.45" y="18.5" class="st13" style="font-family:'EnzoOT-Medi'; font-size:12px;">Editing/Music/VO</tspan><tspan x="7.85" y="37" class="st13" style="font-family:'EnzoOT-Medi'; font-size:12px;">Art Buying</tspan><tspan x="0.88" y="55.5" class="st13" style="font-family:'EnzoOT-Medi'; font-size:12px;">Photography</tspan><tspan x="-7.53" y="74" class="st13" style="font-family:'EnzoOT-Medi'; font-size:12px;">Print Production</tspan><tspan x="-27.14" y="92.5" class="st13" style="font-family:'EnzoOT-Medi'; font-size:12px;">Front End Development</tspan><tspan x="6.71" y="111" class="st13" style="font-family:'EnzoOT-Medi'; font-size:12px;">Trafficking</tspan></text>
		<rect x="-170.49" y="123.76" class="st18" width="153.39" height="27"/>
		<rect x="-136.88" y="133.26" style="fill:none;" width="86.16" height="15.5"/>
		<text transform="matrix(1 0 0 1 -125.6507 143.3084)" class="st10" style="font-family:'EnzoOT-Bold'; font-size:14px;">Delivery</text>
		<rect x="-170.2" y="145.34" class="st19" width="152.8" height="152.8"/>
	</g>
	<g id="box-strategy" class="st8">
		<text transform="matrix(1 0 0 1 -141.7223 -18.0552)"><tspan x="0" y="0" class="st13" style="font-family:'EnzoOT-Medi'; font-size:12px;">Strategic Planning</tspan><tspan x="-0.75" y="18.5" class="st13" style="font-family:'EnzoOT-Medi'; font-size:12px;">Brand Architecture</tspan><tspan x="1.55" y="37" class="st13" style="font-family:'EnzoOT-Medi'; font-size:12px;">Brand Positioning</tspan><tspan x="-20.32" y="55.5" class="st13" style="font-family:'EnzoOT-Medi'; font-size:12px;">Customer Journey Mapping</tspan><tspan x="4.06" y="74" class="st13" style="font-family:'EnzoOT-Medi'; font-size:12px;">Market Research</tspan><tspan x="10.69" y="92.5" class="st13" style="font-family:'EnzoOT-Medi'; font-size:12px;">Segmentation</tspan><tspan x="18.26" y="111" class="st13" style="font-family:'EnzoOT-Medi'; font-size:12px;"> Messaging</tspan></text>
		<rect x="-170.49" y="-63.91" class="st20" width="153.39" height="27"/>
		<rect x="-136.88" y="-54.41" style="fill:none;" width="86.16" height="15.5"/>
		<text transform="matrix(1 0 0 1 -128.2127 -44.3629)"><tspan x="0" y="0" class="st10" style="font-family:'EnzoOT-Bold'; font-size:14px;">ST</tspan><tspan x="16.32" y="0" class="st10" style="font-family:'EnzoOT-Bold'; font-size:14px;">R</tspan><tspan x="25.45" y="0" class="st10" style="font-family:'EnzoOT-Bold'; font-size:14px;">ATEGY</tspan></text>
		<rect x="-170.2" y="-37.03" class="st21" width="152.8" height="145.52"/>
	</g>
</g>
</svg>
