<?xml version="1.0" encoding="utf-8"?>
<!-- Generator: Adobe Illustrator 20.1.0, SVG Export Plug-In . SVG Version: 6.00 Build 0)  -->
<svg version="1.1" id="Layer_2" xmlns="http://www.w3.org/2000/svg" xmlns:xlink="http://www.w3.org/1999/xlink" x="0px" y="0px"
	 viewBox="0 0 720 480" style="enable-background:new 0 0 720 480;" xml:space="preserve">
<style type="text/css">
	.st0-chicagoflag{fill:none;}
	.st1-chicagoflag{fill:#661118;}
	.st2-chicagoflag{fill:#CC202E;}
	.st3-chicagoflag{fill:url(#Star_Pattern_1_1_);}
	.st4-chicagoflag{fill:url(#Star_Pattern_2_1_);}
	.st5-chicagoflag{fill:url(#Star_Pattern_3_1_);}
	.st6-chicagoflag{fill:url(#Star_Pattern_4_1_);}
	.st7-chicagoflag{fill:#FFFFFF;}
	.st8-chicagoflag{fill:#B3DDF2;}
</style>
<pattern  y="480" width="6.5" height="39" patternUnits="userSpaceOnUse" id="New_Pattern_Swatch_3" viewBox="0 -39 6.5 39" style="overflow:visible;">
	<g>
		<rect y="-39" class="st0-chicagoflag" width="6.5" height="39"/>
		<rect y="-39" class="st1-chicagoflag" width="3.3" height="39"/>
		<rect x="3.3" y="-39" class="st0-chicagoflag" width="3.3" height="39"/>
	</g>
</pattern>
<rect id="Back_Red" class="st2-chicagoflag" width="720" height="480"/>
<pattern  id="Star_Pattern_1_1_" xlink:href="#New_Pattern_Swatch_3" patternTransform="matrix(0.3536 -0.3536 0.3536 0.3536 -2053.6675 -8099.7051)">
</pattern>
<rect id="Star_Pattern_1" x="83" y="299" class="st3-chicagoflag star-pattern" width="134" height="118"/>
<pattern  id="Star_Pattern_2_1_" xlink:href="#New_Pattern_Swatch_3" patternTransform="matrix(0.3536 -0.3536 0.3536 0.3536 -2051.6821 -8099.6987)">
</pattern>
<rect id="Star_Pattern_2" x="223" y="299" class="st4-chicagoflag star-pattern" width="134" height="118"/>
<pattern  id="Star_Pattern_3_1_" xlink:href="#New_Pattern_Swatch_3" patternTransform="matrix(0.3536 -0.3536 0.3536 0.3536 -2049.6965 -8099.6929)">
</pattern>
<rect id="Star_Pattern_3" x="363" y="299" class="st5-chicagoflag star-pattern" width="134" height="118"/>
<pattern  id="Star_Pattern_4_1_" xlink:href="#New_Pattern_Swatch_3" patternTransform="matrix(0.3536 -0.3536 0.3536 0.3536 -2047.7111 -8099.687)">
</pattern>
<rect id="Star_Pattern_4" x="503" y="299" class="st6-chicagoflag star-pattern" width="134" height="118"/>
<path id="White_Mask" class="st7-chicagoflag" d="M0,0v480h720V0H0z M202,270l-41-11l-11,41l-11-41l-41,11l30-30l-30-30l41,11l11-41l11,41l41-11
	l-30,30L202,270z M342,270l-41-11l-11,41l-11-41l-41,11l30-30l-30-30l41,11l11-41l11,41l41-11l-30,30L342,270z M482,270l-41-11
	l-11,41l-11-41l-41,11l30-30l-30-30l41,11l11-41l11,41l41-11l-30,30L482,270z M622,270l-41-11l-11,41l-11-41l-41,11l30-30l-30-30
	l41,11l11-41l11,41l41-11l-30,30L622,270z"/>
<path id="Blue_Stripes" class="st8-chicagoflag" d="M0,80h720v80H0v160h720v80H0V80z"/>
</svg>
