<?xml version="1.0" encoding="utf-8"?>
<!-- Generator: Adobe Illustrator 21.0.0, SVG Export Plug-In . SVG Version: 6.00 Build 0)  -->
<svg version="1.1" id="Layer_2" xmlns="http://www.w3.org/2000/svg" xmlns:xlink="http://www.w3.org/1999/xlink" x="0px" y="0px"
	 viewBox="0 0 720 480" style="enable-background:new 0 0 720 480;" xml:space="preserve">
<pattern  y="480" width="6.5" height="39" patternUnits="userSpaceOnUse" id="Star_Pattern_1_2_" viewBox="0 -39 6.5 39" style="overflow:visible;">
	<g>
		<rect y="-39" style="fill:none;" width="6.5" height="39"/>
		<g>
			<rect y="-39" style="fill:none;" width="6.5" height="39"/>
			<g>
				<rect y="-39" style="fill:none;" width="6.5" height="39"/>
				<rect y="-39" style="fill:#661118;" width="3.3" height="39"/>
				<rect x="3.3" y="-39" style="fill:none;" width="3.3" height="39"/>
			</g>
		</g>
	</g>
</pattern>
<pattern  y="480" width="6.5" height="39" patternUnits="userSpaceOnUse" id="Star_Pattern_2_2_" viewBox="0 -39 6.5 39" style="overflow:visible;">
	<g>
		<rect y="-39" style="fill:none;" width="6.5" height="39"/>
		<g>
			<rect y="-39" style="fill:none;" width="6.5" height="39"/>
			<g>
				<rect y="-39" style="fill:none;" width="6.5" height="39"/>
				<rect y="-39" style="fill:#661118;" width="3.3" height="39"/>
				<rect x="3.3" y="-39" style="fill:none;" width="3.3" height="39"/>
			</g>
		</g>
	</g>
</pattern>
<pattern  y="480" width="6.5" height="39" patternUnits="userSpaceOnUse" id="Star_Pattern_3_2_" viewBox="0 -39 6.5 39" style="overflow:visible;">
	<g>
		<rect y="-39" style="fill:none;" width="6.5" height="39"/>
		<g>
			<rect y="-39" style="fill:none;" width="6.5" height="39"/>
			<g>
				<rect y="-39" style="fill:none;" width="6.5" height="39"/>
				<rect y="-39" style="fill:#661118;" width="3.3" height="39"/>
				<rect x="3.3" y="-39" style="fill:none;" width="3.3" height="39"/>
			</g>
		</g>
	</g>
</pattern>
<pattern  y="480" width="6.5" height="39" patternUnits="userSpaceOnUse" id="Star_Pattern_4_2_" viewBox="0 -39 6.5 39" style="overflow:visible;">
	<g>
		<rect y="-39" style="fill:none;" width="6.5" height="39"/>
		<g>
			<rect y="-39" style="fill:none;" width="6.5" height="39"/>
			<g>
				<rect y="-39" style="fill:none;" width="6.5" height="39"/>
				<rect y="-39" style="fill:#661118;" width="3.3" height="39"/>
				<rect x="3.3" y="-39" style="fill:none;" width="3.3" height="39"/>
			</g>
		</g>
	</g>
</pattern>
<rect id="Back_Red" x="86" y="160" style="fill:#CC202E;" width="551" height="160"/>
<pattern  id="Star_Pattern_1_1_" xlink:href="#Star_Pattern_1_2_" patternTransform="matrix(0.3536 -0.3536 0.3536 0.3536 -12203.7451 -2109.0142)">
</pattern>
<rect id="Star_Pattern_1" class="star-pattern star-pattern-1" x="83" y="299" style="fill:url(#Star_Pattern_1_1_);" width="134" height="118"/>
<pattern  id="Star_Pattern_2_1_" xlink:href="#Star_Pattern_2_2_" patternTransform="matrix(0.3536 -0.3536 0.3536 0.3536 -12201.7598 -2109.0078)">
</pattern>
<rect id="Star_Pattern_2" class="star-pattern star-pattern-2" x="223" y="299" style="fill:url(#Star_Pattern_2_1_);" width="134" height="118"/>
<pattern  id="Star_Pattern_3_1_" xlink:href="#Star_Pattern_3_2_" patternTransform="matrix(0.3536 -0.3536 0.3536 0.3536 -12199.7734 -2109.002)">
</pattern>
<rect id="Star_Pattern_3" class="star-pattern star-pattern-3" x="363" y="299" style="fill:url(#Star_Pattern_3_1_);" width="134" height="118"/>
<pattern  id="Star_Pattern_4_1_" xlink:href="#Star_Pattern_4_2_" patternTransform="matrix(0.3536 -0.3536 0.3536 0.3536 -12197.7881 -2108.9961)">
</pattern>
<rect id="Star_Pattern_4" class="star-pattern star-pattern-4" x="503" y="299" style="fill:url(#Star_Pattern_4_1_);" width="134" height="118"/>
<path id="White_Mask" style="fill:#FFFFFF;" d="M0,0v480h720V0H0z M202,270l-41-11l-11,41l-11-41l-41,11l30-30l-30-30l41,11l11-41
	l11,41l41-11l-30,30L202,270z M342,270l-41-11l-11,41l-11-41l-41,11l30-30l-30-30l41,11l11-41l11,41l41-11l-30,30L342,270z M482,270
	l-41-11l-11,41l-11-41l-41,11l30-30l-30-30l41,11l11-41l11,41l41-11l-30,30L482,270z M622,270l-41-11l-11,41l-11-41l-41,11l30-30
	l-30-30l41,11l11-41l11,41l41-11l-30,30L622,270z"/>
<path id="Blue_Stripes" style="fill:#B3DDF2;" d="M0,80h720v80H0v160h720v80H0V80z"/>
</svg>
