<?xml version="1.0" encoding="utf-8"?>
<!-- Generator: Adobe Illustrator 21.0.0, SVG Export Plug-In . SVG Version: 6.00 Build 0)  -->
<svg version="1.1" id="Layer_2" xmlns="http://www.w3.org/2000/svg" xmlns:xlink="http://www.w3.org/1999/xlink" x="0px" y="0px"
	 viewBox="0 0 720 480" style="enable-background:new 0 0 720 480;" xml:space="preserve">
<style type="text/css">
	.st0-chicagoflag{fill:none;}
	.st1-chicagoflag{fill:#661118;}
	.st2-chicagoflag{fill:#CC202E;}
	.st3-chicagoflag{fill:url(#Star_Pattern_1_2_);}
	.st4-chicagoflag{fill:url(#Star_Pattern_2_2_);}
	.st5-chicagoflag{fill:url(#Star_Pattern_3_2_);}
	.st6-chicagoflag{fill:url(#Star_Pattern_4_2_);}
	.st7-chicagoflag{fill:#FFFFFF;}
	.st8-chicagoflag{fill:#B3DDF2;}
</style>
<pattern  y="480" width="6.5" height="39" patternUnits="userSpaceOnUse" id="Star_Pattern_1_1_" viewBox="0 -39 6.5 39" style="overflow:visible;">
	<g>
		<rect y="-39" class="st0-chicagoflag" width="6.5" height="39"/>
		<g>
			<rect y="-39" class="st0-chicagoflag" width="6.5" height="39"/>
			<rect y="-39" class="st1-chicagoflag" width="3.3" height="39"/>
			<rect x="3.3" y="-39" class="st0-chicagoflag" width="3.3" height="39"/>
		</g>
	</g>
</pattern>
<pattern  y="480" width="6.5" height="39" patternUnits="userSpaceOnUse" id="Star_Pattern_2_1_" viewBox="0 -39 6.5 39" style="overflow:visible;">
	<g>
		<rect y="-39" class="st0-chicagoflag" width="6.5" height="39"/>
		<g>
			<rect y="-39" class="st0-chicagoflag" width="6.5" height="39"/>
			<rect y="-39" class="st1-chicagoflag" width="3.3" height="39"/>
			<rect x="3.3" y="-39" class="st0-chicagoflag" width="3.3" height="39"/>
		</g>
	</g>
</pattern>
<pattern  y="480" width="6.5" height="39" patternUnits="userSpaceOnUse" id="Star_Pattern_3_1_" viewBox="0 -39 6.5 39" style="overflow:visible;">
	<g>
		<rect y="-39" class="st0-chicagoflag" width="6.5" height="39"/>
		<g>
			<rect y="-39" class="st0-chicagoflag" width="6.5" height="39"/>
			<rect y="-39" class="st1-chicagoflag" width="3.3" height="39"/>
			<rect x="3.3" y="-39" class="st0-chicagoflag" width="3.3" height="39"/>
		</g>
	</g>
</pattern>
<pattern  y="480" width="6.5" height="39" patternUnits="userSpaceOnUse" id="Star_Pattern_4_1_" viewBox="0 -39 6.5 39" style="overflow:visible;">
	<g>
		<rect y="-39" class="st0-chicagoflag" width="6.5" height="39"/>
		<g>
			<rect y="-39" class="st0-chicagoflag" width="6.5" height="39"/>
			<rect y="-39" class="st1-chicagoflag" width="3.3" height="39"/>
			<rect x="3.3" y="-39" class="st0-chicagoflag" width="3.3" height="39"/>
		</g>
	</g>
</pattern>
<rect id="Back_Red" x="86" y="160" class="st2-chicagoflag" width="551" height="160"/>
<pattern  id="Star_Pattern_1_2_" xlink:href="#Star_Pattern_1_1_" patternTransform="matrix(0.3536 -0.3536 -0.3536 -0.3536 -10124.0518 -6643.9858)">
</pattern>
<rect id="Star_Pattern_1" x="83" y="299" class="st3-chicagoflag star-pattern" width="134" height="118"/>
<pattern  id="Star_Pattern_2_2_" xlink:href="#Star_Pattern_2_1_" patternTransform="matrix(0.3536 -0.3536 -0.3536 -0.3536 -10122.0664 -6643.9922)">
</pattern>
<rect id="Star_Pattern_2" x="223" y="299" class="st4-chicagoflag star-pattern" width="134" height="118"/>
<pattern  id="Star_Pattern_3_2_" xlink:href="#Star_Pattern_3_1_" patternTransform="matrix(0.3536 -0.3536 -0.3536 -0.3536 -10120.0801 -6643.998)">
</pattern>
<rect id="Star_Pattern_3" x="363" y="299" class="st5-chicagoflag star-pattern" width="134" height="118"/>
<pattern  id="Star_Pattern_4_2_" xlink:href="#Star_Pattern_4_1_" patternTransform="matrix(0.3536 -0.3536 -0.3536 -0.3536 -10118.0947 -6644.0039)">
</pattern>
<rect id="Star_Pattern_4" x="503" y="299" class="st6-chicagoflag star-pattern" width="134" height="118"/>
<path id="White_Mask" class="st7-chicagoflag" d="M0,0v480h720V0H0z M202,270l-41-11l-11,41l-11-41l-41,11l30-30l-30-30l41,11l11-41l11,41l41-11
	l-30,30L202,270z M342,270l-41-11l-11,41l-11-41l-41,11l30-30l-30-30l41,11l11-41l11,41l41-11l-30,30L342,270z M482,270l-41-11
	l-11,41l-11-41l-41,11l30-30l-30-30l41,11l11-41l11,41l41-11l-30,30L482,270z M622,270l-41-11l-11,41l-11-41l-41,11l30-30l-30-30
	l41,11l11-41l11,41l41-11l-30,30L622,270z"/>
<path id="Blue_Stripes" class="st8-chicagoflag" d="M0,80h720v80H0v160h720v80H0V80z"/>
</svg>
