<?xml version="1.0" encoding="utf-8"?>
<!-- Generator: Adobe Illustrator 20.1.0, SVG Export Plug-In . SVG Version: 6.00 Build 0)  -->
<svg version="1.1" id="Layer_1" xmlns="http://www.w3.org/2000/svg" xmlns:xlink="http://www.w3.org/1999/xlink" x="0px" y="0px"
	 viewBox="0 0 33.4 56" style="enable-background:new 0 0 33.4 56;" xml:space="preserve">
<style type="text/css">
	.st0{fill:#CC202F;}
</style>
<g>
	<g>
		<path class="st0" d="M24,32.3c-0.1,0.7,0,2.1,0.3,2.8l7.8,17C32.5,53,33,54,32.3,55c-0.4,0.6-1.1,1-1.9,1c-1.3,0-1.9-1-2.4-1.8
			l-9.7-16.3l-2.6,5.3c-0.6,1.3-1.8,3-2.8,4l-5.3,5.7c-0.7,0.7-1.2,1.3-2.2,1.3c-0.8,0-1.6-0.5-2-1.2c-0.6-1.3,0.1-2.2,0.8-3
			l5.2-6.5c0.6-0.7,1.3-2.1,1.5-3l1.9-6.8c0.3-1,0.6-2.8,0.7-3.8l0.9-10.4c-4.2,1.4-8.4,6.9-9.8,9.2c-0.6,1-1.1,1.8-2.4,1.8l0,0
			c-0.8,0-1.5-0.4-1.9-1.1c-0.6-1.1-0.2-2,0.4-3C1,25.8,8.8,12.1,19.4,12.9c4.6,0.4,6,3.8,7,6.1c0.2,0.5,0.4,1,0.7,1.5l6,10.9
			c0.6,1,0.2,2.4-0.8,3c-1,0.6-2.3,0.3-2.9-0.7l-4.5-7.1L24,32.3"/>
	</g>
	<g>
		<path class="st0" d="M27,4.4c0.5,2.9-1.5,5.5-4.3,6c-2.9,0.5-5.5-1.5-6-4.3s1.5-5.5,4.3-6C23.8-0.4,26.5,1.5,27,4.4"/>
	</g>
</g>
</svg>
