<?xml version="1.0" encoding="utf-8"?>
<!-- Generator: Adobe Illustrator 20.1.0, SVG Export Plug-In . SVG Version: 6.00 Build 0)  -->
<svg version="1.1" id="Layer_1" xmlns="http://www.w3.org/2000/svg" xmlns:xlink="http://www.w3.org/1999/xlink" x="0px" y="0px"
	 viewBox="0 0 590 56" style="enable-background:new 0 0 590 56;" xml:space="preserve">
<style type="text/css">
	.st0{clip-path:url(#SVGID_2_);}
	.st1{clip-path:url(#SVGID_4_);fill:#CC202E;}
</style>
<g>
	<defs>
		<rect id="SVGID_1_" width="590" height="56"/>
	</defs>
	<clipPath id="SVGID_2_">
		<use xlink:href="#SVGID_1_"  style="overflow:visible;"/>
	</clipPath>
	<path class="st0" d="M39.2,43.6c-1.6,2.5-3.1,5-6.5,7.3c-1.8,1.3-6.1,3.8-12.1,3.8c-11.4,0-20.7-8.3-20.7-22.9
		C-0.1,19,8.6,8.9,20.9,8.9c5,0,9.4,1.7,12.6,4.3c3,2.4,4.4,4.8,5.6,6.9l-8.6,4.3c-0.6-1.4-1.3-2.9-3.2-4.5
		c-2.1-1.6-4.2-2.1-5.9-2.1c-7,0-10.6,6.5-10.6,13.7c0,9.5,4.8,14.2,10.6,14.2c5.6,0,7.9-3.9,9.4-6.4L39.2,43.6"/>
</g>
<polyline points="178.4,10.2 189.9,10.2 174.9,53.4 163.9,53.4 149.1,10.2 160.6,10.2 169.5,40.9 178.4,10.2 "/>
<rect x="88.2" y="10.2" width="10.8" height="43.2"/>
<rect x="240" y="10.2" width="10.8" height="43.2"/>
<polyline points="314.2,10.2 324.9,10.2 324.9,44.3 341.8,44.3 341.8,53.4 314.2,53.4 314.2,10.2 "/>
<path d="M490.4,10.2l15.9,43.2h-11.5l-2.1-6.9h-15.9l-2.1,6.9h-11.5l16-43.2H490.4 M484.6,20.5c-0.6,2.2-1.2,4.5-1.8,6.7
	c-0.9,3.2-2.6,8.3-3.5,11.6h10.9L484.6,20.5z"/>
<path d="M553.8,10.2h10.6l9.4,15.9c3.4,6.1,4.5,8,6.5,11.8l-0.5-27.7H590v43.2h-10.6l-8.1-13.6c-3.9-6.4-4.6-7.8-7.6-13.5l0.3,27.2
	h-10.3V10.2"/>
<g>
	<defs>
		<rect id="SVGID_3_" width="590" height="56"/>
	</defs>
	<clipPath id="SVGID_4_">
		<use xlink:href="#SVGID_3_"  style="overflow:visible;"/>
	</clipPath>
	<path class="st1" d="M409.5,32.3c-0.1,0.7,0,2.1,0.3,2.8l7.8,17c0.4,0.9,0.9,1.9,0.2,2.9c-0.4,0.6-1.1,1-1.9,1
		c-1.3,0-1.9-1-2.4-1.8l-9.7-16.3l-2.6,5.3c-0.6,1.3-1.8,3-2.8,4l-5.3,5.7c-0.7,0.7-1.2,1.3-2.2,1.3c-0.8,0-1.6-0.5-2-1.2
		c-0.6-1.3,0.1-2.2,0.8-3l5.2-6.5c0.6-0.7,1.3-2.1,1.5-3l1.9-6.8c0.3-1,0.6-2.8,0.7-3.8l0.9-10.4c-4.2,1.4-8.4,6.9-9.8,9.2
		c-0.6,1-1.1,1.8-2.4,1.8h0c-0.8,0-1.5-0.4-1.9-1.1c-0.6-1.1-0.2-2,0.4-3c0.3-0.6,8.1-14.3,18.7-13.5c4.6,0.4,6,3.8,7,6.1
		c0.2,0.5,0.4,1,0.7,1.5l6,10.9c0.6,1,0.2,2.4-0.8,3c-1,0.6-2.3,0.3-2.9-0.7l-4.5-7.1L409.5,32.3"/>
	<path class="st1" d="M412.5,4.4c0.5,2.9-1.5,5.5-4.3,6c-2.9,0.5-5.5-1.5-6-4.3c-0.5-2.8,1.5-5.5,4.3-6C409.3-0.4,412,1.5,412.5,4.4
		"/>
</g>
</svg>
