<?xml version="1.0" encoding="utf-8"?>
<!-- Generator: Adobe Illustrator 20.1.0, SVG Export Plug-In . SVG Version: 6.00 Build 0)  -->
<svg version="1.1" id="Layer_1" xmlns="http://www.w3.org/2000/svg" xmlns:xlink="http://www.w3.org/1999/xlink" x="0px" y="0px"
	 viewBox="0 0 68.7 68.7" style="enable-background:new 0 0 68.7 68.7;" xml:space="preserve">
<style type="text/css">
	.st0{fill:#FFFFFF;}
	.st1{fill:#CC202F;}
</style>
<circle class="st0" cx="34.3" cy="34.3" r="34.3"/>
<g>
	<g>
		<path class="st1" d="M41.7,38.6c-0.1,0.7,0,2.1,0.3,2.8l7.8,17c0.4,0.9,0.9,1.9,0.2,2.9c-0.4,0.6-1.1,1-1.9,1
			c-1.3,0-1.9-1-2.4-1.8L36,44.2l-2.6,5.3c-0.6,1.3-1.8,3-2.8,4l-5.3,5.7c-0.7,0.7-1.2,1.3-2.2,1.3c-0.8,0-1.6-0.5-2-1.2
			c-0.6-1.3,0.1-2.2,0.8-3l5.2-6.5c0.6-0.7,1.3-2.1,1.5-3l1.9-6.8c0.3-1,0.6-2.8,0.7-3.8l0.9-10.4c-4.2,1.4-8.4,6.9-9.8,9.2
			c-0.6,1-1.1,1.8-2.4,1.8l0,0c-0.8,0-1.5-0.4-1.9-1.1c-0.6-1.1-0.2-2,0.4-3c0.3-0.6,8.1-14.3,18.7-13.5c4.6,0.4,6,3.8,7,6.1
			c0.2,0.5,0.4,1,0.7,1.5l6,10.9c0.6,1,0.2,2.4-0.8,3c-1,0.6-2.3,0.3-2.9-0.7l-4.5-7.1L41.7,38.6"/>
	</g>
	<g>
		<path class="st1" d="M44.7,10.7c0.5,2.9-1.5,5.5-4.3,6c-2.9,0.5-5.5-1.5-6-4.3s1.5-5.5,4.3-6S44.2,7.8,44.7,10.7"/>
	</g>
</g>
</svg>
