<?xml version="1.0" encoding="utf-8"?>
<!-- Generator: Adobe Illustrator 20.1.0, SVG Export Plug-In . SVG Version: 6.00 Build 0)  -->
<svg version="1.1" id="Layer_1" xmlns="http://www.w3.org/2000/svg" xmlns:xlink="http://www.w3.org/1999/xlink" x="0px" y="0px"
	 viewBox="0 0 147.4 45.8" style="enable-background:new 0 0 147.4 45.8;" xml:space="preserve">
<style type="text/css">
	.st0{fill:#FFFFFF;}
</style>
<g>
	<path class="st0" d="M39.3,34.7c-1.6,2.5-3.1,5-6.5,7.3c-1.8,1.3-6.1,3.8-12.1,3.8C9.2,45.8,0,37.5,0,22.9C0,10.1,8.7,0,20.9,0
		c5,0,9.4,1.7,12.6,4.3c3,2.4,4.4,4.8,5.6,6.9l-8.6,4.3c-0.6-1.4-1.3-2.9-3.2-4.5c-2.1-1.7-4.2-2.1-5.9-2.1c-7,0-10.6,6.5-10.6,13.7
		c0,9.5,4.8,14.2,10.6,14.2c5.6,0,7.9-3.9,9.4-6.4L39.3,34.7z"/>
	<polygon class="st0" points="77.2,14.4 77.2,1.3 75.9,1.3 67.1,32 58.1,1.3 46.6,1.3 61.4,44.5 72.5,44.5 82.9,14.4 	"/>
</g>
<g id="Layer_2">
	<path d="M72.4,1.3h10.8v34.1h16.9v9.1H72.4V1.3z"/>
	<path d="M111.1,1.3h10.6l9.4,15.9c3.4,6.1,4.5,8,6.5,11.8L137,1.3h10.3v43.2h-10.6l-8.1-13.6c-3.9-6.4-4.6-7.8-7.6-13.5l0.3,27.2
		h-10.3V1.3z"/>
</g>
</svg>
