<?xml version="1.0" encoding="utf-8"?>
<!-- Generator: Adobe Illustrator 20.1.0, SVG Export Plug-In . SVG Version: 6.00 Build 0)  -->
<svg version="1.1" id="Layer_1" xmlns="http://www.w3.org/2000/svg" xmlns:xlink="http://www.w3.org/1999/xlink" x="0px" y="0px"
	 viewBox="0 0 218.7 56" style="enable-background:new 0 0 218.7 56;" xml:space="preserve">
<style type="text/css">
	.st0{fill:#CC202E;}
</style>
<g>
	<g>
		<path class="st0" d="M209.2,32.3c-0.1,0.7,0,2.1,0.3,2.8l7.8,17c0.4,0.9,0.9,1.9,0.2,2.9c-0.4,0.6-1.1,1-1.9,1l0,0
			c-1.3,0-1.9-1-2.4-1.8l-9.7-16.3l-2.6,5.3c-0.6,1.3-1.8,3-2.8,4l-5.3,5.7c-0.7,0.7-1.2,1.3-2.2,1.3c-0.8,0-1.6-0.5-2-1.2
			c-0.6-1.3,0.1-2.2,0.8-3l5.2-6.5c0.6-0.7,1.3-2.1,1.5-3l1.9-6.8c0.3-1,0.6-2.8,0.7-3.8l0.9-10.4c-4.2,1.4-8.4,6.9-9.8,9.2
			c-0.6,1-1.1,1.8-2.4,1.8h0c-0.8,0-1.5-0.4-1.9-1.1c-0.6-1.1-0.2-2,0.4-3c0.3-0.6,8.1-14.3,18.7-13.5c4.6,0.4,6,3.8,7,6.1
			c0.2,0.5,0.4,1,0.7,1.5l6,10.9c0.6,1,0.2,2.4-0.8,3c-1,0.6-2.3,0.3-2.9-0.7l-4.5-7.1L209.2,32.3z"/>
		<path class="st0" d="M212.1,4.4c0.5,2.9-1.5,5.5-4.3,6c-2.9,0.5-5.5-1.5-6-4.3c-0.5-2.8,1.5-5.5,4.3-6
			C209-0.4,211.6,1.5,212.1,4.4z"/>
	</g>
	<path d="M39.3,43.6c-1.6,2.5-3.1,5-6.5,7.3c-1.8,1.3-6.1,3.8-12.1,3.8C9.2,54.7,0,46.4,0,31.8C0,19,8.7,8.9,20.9,8.9
		c5,0,9.4,1.7,12.6,4.3c3,2.4,4.4,4.8,5.6,6.9l-8.6,4.3c-0.6-1.4-1.3-2.9-3.2-4.5c-2.1-1.7-4.2-2.1-5.9-2.1c-7,0-10.6,6.5-10.6,13.7
		c0,9.5,4.8,14.2,10.6,14.2c5.6,0,7.9-3.9,9.4-6.4L39.3,43.6z"/>
	<path d="M75.9,10.2h11.5l-15,43.2h-11L46.6,10.2h11.5l8.9,30.7L75.9,10.2z"/>
	<path d="M98.2,10.2H109v34.1h16.9v9.1H98.2V10.2z"/>
	<path d="M136.8,10.2h10.6l9.4,15.9c3.4,6.1,4.5,8,6.5,11.8l-0.5-27.7h10.3v43.2h-10.6l-8.1-13.6c-3.9-6.4-4.6-7.8-7.6-13.5
		l0.3,27.2h-10.3V10.2z"/>
</g>
</svg>
