<?xml version="1.0" encoding="utf-8"?>
<!-- Generator: Adobe Illustrator 20.1.0, SVG Export Plug-In . SVG Version: 6.00 Build 0)  -->
<svg version="1.1" id="Layer_1" xmlns="http://www.w3.org/2000/svg" xmlns:xlink="http://www.w3.org/1999/xlink" x="0px" y="0px"
	 viewBox="0 0 34 56" style="enable-background:new 0 0 34 56;" xml:space="preserve">
<style type="text/css">
	.st0{clip-path:url(#SVGID_2_);fill:#CC202E;}
</style>
<g>
	<defs>
		<rect id="SVGID_1_" x="0.1" y="0" width="33.2" height="56"/>
	</defs>
	<clipPath id="SVGID_2_">
		<use xlink:href="#SVGID_1_"  style="overflow:visible;"/>
	</clipPath>
	<path class="st0" d="M23.8,32.3c-0.1,0.7,0,2.1,0.3,2.8l7.8,17c0.4,0.9,0.9,1.9,0.2,2.9c-0.4,0.6-1.1,1-1.9,1c-1.3,0-1.9-1-2.4-1.8
		l-9.7-16.3l-2.6,5.3c-0.6,1.3-1.8,3-2.8,4L7.5,53c-0.7,0.7-1.2,1.3-2.2,1.3c-0.8,0-1.6-0.5-2-1.2c-0.6-1.3,0.1-2.2,0.8-3l5.2-6.5
		c0.6-0.7,1.3-2.1,1.5-3l1.9-6.8c0.3-1,0.6-2.8,0.7-3.8l0.9-10.4C10.1,21,6,26.5,4.6,28.8c-0.6,1-1.1,1.8-2.4,1.8h0
		c-0.8,0-1.5-0.4-1.9-1.1c-0.6-1.1-0.2-2,0.4-3C1,26,8.8,12.2,19.4,13.1c4.6,0.4,6,3.8,7,6.1c0.2,0.5,0.4,1,0.7,1.5l6,10.9
		c0.6,1,0.2,2.4-0.8,3c-1,0.6-2.3,0.3-2.9-0.7l-4.5-7.1L23.8,32.3"/>
	<path class="st0" d="M26.7,4.4c0.5,2.8-1.5,5.5-4.3,6c-2.9,0.5-5.5-1.5-6-4.3c-0.5-2.8,1.5-5.5,4.3-6C23.6-0.4,26.3,1.5,26.7,4.4"
		/>
</g>
</svg>
