<svg id="Square_Color" xmlns="http://www.w3.org/2000/svg" viewBox="0 0 128 128"><style>.st0{fill:#fff}.st1{fill-rule:evenodd;clip-rule:evenodd;fill:#00464f}</style><g id="Instagram_13_"><path id="back_112_" class="st0" d="M0 0h128v128H0z"/><path id="Instagram_14_" class="st1" d="M91.6 58.5h-6.2c.5 1.8.7 3.6.7 5.5 0 12.2-9.9 22.1-22.1 22.1-12.2 0-22.1-9.9-22.1-22.1 0-1.9.3-3.8.7-5.5h-6.2v30.3c0 1.5 1.2 2.8 2.8 2.8h49.6c1.5 0 2.8-1.2 2.8-2.8V58.5zm0-19.3c0-1.5-1.2-2.8-2.8-2.8h-8.3c-1.5 0-2.8 1.2-2.8 2.8v8.3c0 1.5 1.2 2.8 2.8 2.8h8.3c1.5 0 2.8-1.2 2.8-2.8v-8.3zM64 50.2c-7.6 0-13.8 6.2-13.8 13.8 0 7.6 6.2 13.8 13.8 13.8 7.6 0 13.8-6.2 13.8-13.8 0-7.6-6.2-13.8-13.8-13.8m27.6 49.6H36.4c-4.6 0-8.3-3.7-8.3-8.3V36.4c0-4.6 3.7-8.3 8.3-8.3h55.1c4.6 0 8.3 3.7 8.3 8.3v55.1c0 4.6-3.7 8.3-8.2 8.3"/></g></svg>