<svg id="Square_Color" xmlns="http://www.w3.org/2000/svg" viewBox="0 0 128 128"><style>.st0{fill:#fff}.st1{fill:#00464f}</style><g id="Linkedin_12_"><path id="back_113_" class="st0" d="M0 0h128v128H0z"/><g id="Linkedin_13_"><path class="st1" d="M29.1 51.7H44v47.8H29.1V51.7zM36.5 28c4.8 0 8.6 3.9 8.6 8.6s-3.9 8.6-8.6 8.6c-4.8 0-8.6-3.9-8.6-8.6s3.8-8.6 8.6-8.6M53.3 51.7h14.2v6.5h.2c2-3.8 6.8-7.7 14.1-7.7 15 0 17.8 9.9 17.8 22.8v26.2H84.7V76.3c0-5.5-.1-12.7-7.7-12.7-7.7 0-8.9 6-8.9 12.3v23.6H53.3V51.7z"/></g></g></svg>