<?xml version="1.0" encoding="utf-8"?>
<!-- Generator: Adobe Illustrator 20.0.0, SVG Export Plug-In . SVG Version: 6.00 Build 0)  -->
<svg version="1.1" id="Layer_1" xmlns="http://www.w3.org/2000/svg" xmlns:xlink="http://www.w3.org/1999/xlink" x="0px" y="0px"
	 viewBox="0 0 27.1 36.7" style="enable-background:new 0 0 27.1 36.7;" xml:space="preserve">
<style type="text/css">
	.st0{fill:#FFFFFF;}
</style>
<g>
	<path class="st0" d="M13,29.8c4.6,0,6.3-1.8,6.3-5.5c0-3.7-2.5-4.6-7.1-4.6c-2.2,0-4.9,0.5-8.1,1.5l-2.6-5.9L3.2,0h20.9v6.9H9.5
		l-1.1,7.5c2.1-0.6,4.2-0.8,6.1-0.8c7.9,0,12.6,4.5,12.6,11.3c0,6.6-4.1,11.9-13.7,11.9c-5.3,0-9.8-1.1-13.4-3.6l2.6-5.9
		C5.8,29,9.3,29.8,13,29.8z"/>
</g>
</svg>
