<?xml version="1.0" encoding="utf-8"?>
<!-- Generator: Adobe Illustrator 20.0.0, SVG Export Plug-In . SVG Version: 6.00 Build 0)  -->
<svg version="1.1" id="Layer_1" xmlns="http://www.w3.org/2000/svg" xmlns:xlink="http://www.w3.org/1999/xlink" x="0px" y="0px"
	 viewBox="0 0 44.8 35.1" style="enable-background:new 0 0 44.8 35.1;" xml:space="preserve">
<style type="text/css">
	.st0{fill:#FFFFFF;}
</style>
<g>
	<circle class="st0" cx="33" cy="4.6" r="3"/>
	<path class="st0" d="M44.2,0.2c-1.3-0.8-2.4,0.9-2.4,0.9l-7,8.4L33,9.6l-1.8-0.1l-7-8.4c0,0-0.7-1-1.6-1.1c-0.1,0-0.2,0-0.2,0
		c0,0-0.1,0-0.1,0c-0.9,0.1-1.6,1.1-1.6,1.1l-7,8.4l-1.8,0.1L10,9.5L3,1.1c0,0-1.1-1.7-2.4-0.9c0,0-1.2,0.3-0.3,1.7l7.9,9.7
		L5.3,24.9h2.5l-0.2,8.7c0,0-0.1,1.4,1.7,1.5c0,0,1.9,0.1,2-1.6l0.3-8.5h0.5l0.3,8.5c0.1,1.7,2,1.6,2,1.6c1.8-0.1,1.7-1.5,1.7-1.5
		L15.9,25h2.5l-2.9-13.3l0,0l0-0.1L22.4,3l6.9,8.5l-0.6,22c0,0-0.1,1.4,1.7,1.5c0,0,1.9,0.1,2-1.6l0.4-11.9l0-0.9h0.3l0,0.9
		l0.4,11.9c0.1,1.7,2,1.6,2,1.6c1.8-0.1,1.7-1.5,1.7-1.5l-0.6-22l7.9-9.7C45.4,0.5,44.2,0.2,44.2,0.2z"/>
	<circle class="st0" cx="11.9" cy="4.6" r="3"/>
</g>
</svg>
