<?xml version="1.0" encoding="utf-8"?>
<!-- Generator: Adobe Illustrator 20.0.0, SVG Export Plug-In . SVG Version: 6.00 Build 0)  -->
<svg version="1.1" id="Layer_1" xmlns="http://www.w3.org/2000/svg" xmlns:xlink="http://www.w3.org/1999/xlink" x="0px" y="0px"
	 viewBox="0 0 46.3 43" style="enable-background:new 0 0 46.3 43;" xml:space="preserve">
<style type="text/css">
	.st0{fill:#FFFFFF;}
</style>
<g>
	<path class="st0" d="M32.2,0.4c-5-1.8-8.8,2.7-8.9,2.9c-0.1-0.1-3.9-4.6-8.9-2.9c0,0-5.8,1.8-4,8.1c0,0,0.2,2.1,5.6,7.6l5.9,5.5
		c0,0,0.6,0.7,1.4,0.7c0.8,0,1.4-0.7,1.4-0.7l5.9-5.5c5.5-5.5,5.6-7.6,5.6-7.6C38,2.2,32.2,0.4,32.2,0.4z"/>
	<path class="st0" d="M42.6,35.3l-4.5-3c-0.1-0.1-0.2-0.2-0.3-0.2c0,0-1.7-0.8-2.1-1.6c0,0-2.8-2.3-6.6-2.5c0,0-3.5,0-5.3,1
		c0,0-2.3,1.4-4.8,0.1c0,0-3.9-0.9-5.4,0.1c0,0-1.4,1.2,0.6,2.7c0,0-3.1-0.4-3.9-0.1c0,0-3.1-1.3-3.7-1.3c0,0-2.3-1.3-3-1.3
		c0,0-1.9-1.4-3.5,0c0,0,0,0.8,0.8,1.3c0,0-0.1,0.9,1.9,1.5c0,0,2.8,1.9,4.1,2.6c0,0,1.1,0.5,1.2,1c0,0,0.7,0.8,1.9,0.7
		c0,0,1.1,0.1,1.2,0.4c0,0,1,0.5,1.9,0.5c0,0,3.3,0.4,3.8,0.9c0,0,2.4,0.9,3.5,0.5c0,0,6-0.7,6.9-0.2c0,0,4.5,0.2,4.5,0.6
		c0,0,0.8,0.4,1.5,0.5c0.1,0,0.1,0,0.2,0c0.7,0,0.9,0.9,2.7,1.4c0,0,0,0,0,0s2.7,2.4,3.6,2.1c0,0,6-1.6,6.5-4.4
		C46.3,38.6,44.4,35.9,42.6,35.3z"/>
</g>
</svg>
