<?xml version="1.0" encoding="utf-8"?>
<!-- Generator: Adobe Illustrator 20.0.0, SVG Export Plug-In . SVG Version: 6.00 Build 0)  -->
<svg version="1.1" id="Layer_1" xmlns="http://www.w3.org/2000/svg" xmlns:xlink="http://www.w3.org/1999/xlink" x="0px" y="0px"
	 viewBox="0 0 42.1 40.7" style="enable-background:new 0 0 42.1 40.7;" xml:space="preserve">
<style type="text/css">
	.st0{fill:#EABA1F;stroke:#FFFFFF;stroke-width:7.0192;stroke-miterlimit:10;}
	.st1{fill:#EABA1F;}
	.st2{fill:#FFFFFF;stroke:#EABA1F;stroke-width:7.0192;stroke-miterlimit:10;}
	.st3{fill:#FFFFFF;}
</style>
<g>
	<g>
		<path class="st0" d="M34.2,3.9c-5.1-1.8-8.8,2.8-9,2.9c-0.1-0.2-3.9-4.7-9-2.9c0,0-5.9,1.9-4,8.1c0,0,0.2,2.1,5.7,7.7l5.9,5.6
			c0,0,0.6,0.7,1.4,0.7c0.8,0,1.4-0.7,1.4-0.7l5.9-5.6c5.5-5.6,5.7-7.7,5.7-7.7C40.1,5.8,34.2,3.9,34.2,3.9z"/>
		<path class="st1" d="M34.2,3.9c-5.1-1.8-8.8,2.8-9,2.9c-0.1-0.2-3.9-4.7-9-2.9c0,0-5.9,1.9-4,8.1c0,0,0.2,2.1,5.7,7.7l5.9,5.6
			c0,0,0.6,0.7,1.4,0.7c0.8,0,1.4-0.7,1.4-0.7l5.9-5.6c5.5-5.6,5.7-7.7,5.7-7.7C40.1,5.8,34.2,3.9,34.2,3.9z"/>
	</g>
	<g>
		<path class="st2" d="M25.8,15.1c-5.1-1.8-8.8,2.8-9,2.9c-0.1-0.2-3.9-4.7-9-2.9c0,0-5.9,1.9-4,8.1c0,0,0.2,2.1,5.7,7.7l5.9,5.6
			c0,0,0.6,0.7,1.4,0.7c0.8,0,1.4-0.7,1.4-0.7l5.9-5.6c5.5-5.6,5.7-7.7,5.7-7.7C31.7,17,25.8,15.1,25.8,15.1z"/>
		<path class="st3" d="M25.8,15.1c-5.1-1.8-8.8,2.8-9,2.9c-0.1-0.2-3.9-4.7-9-2.9c0,0-5.9,1.9-4,8.1c0,0,0.2,2.1,5.7,7.7l5.9,5.6
			c0,0,0.6,0.7,1.4,0.7c0.8,0,1.4-0.7,1.4-0.7l5.9-5.6c5.5-5.6,5.7-7.7,5.7-7.7C31.7,17,25.8,15.1,25.8,15.1z"/>
	</g>
</g>
</svg>
