<?xml version="1.0" encoding="utf-8"?>
<!-- Generator: Adobe Illustrator 20.0.0, SVG Export Plug-In . SVG Version: 6.00 Build 0)  -->
<svg version="1.1" id="Layer_1" xmlns="http://www.w3.org/2000/svg" xmlns:xlink="http://www.w3.org/1999/xlink" x="0px" y="0px"
	 viewBox="0 0 63.1 55.8" style="enable-background:new 0 0 63.1 55.8;" xml:space="preserve">
<style type="text/css">
	.st0{fill:#FFFFFF;}
	.st1{fill:#CC2030;}
</style>
<path class="st0" d="M59.3,24.3c-1.4,0-2.6,0.8-3.3,1.9H32.8L43.6,7.4c0.3,0.1,0.6,0.1,0.8,0.1c2.1,0,3.8-1.7,3.8-3.8S46.6,0,44.5,0
	s-3.8,1.7-3.8,3.8c0,0.7,0.2,1.3,0.5,1.8l-11,19.1L19.3,6C19.8,5.4,20,4.6,20,3.8c0-2.1-1.7-3.8-3.8-3.8s-3.8,1.7-3.8,3.8
	s1.7,3.8,3.8,3.8c0.2,0,0.3,0,0.5-0.1l10.8,18.7H7c-0.7-1.1-1.9-1.9-3.3-1.9C1.7,24.4,0,26,0,28.1s1.7,3.8,3.8,3.8
	c1.6,0,2.9-1,3.5-2.3h20.1L16.8,47.9c-0.1,0-0.2,0-0.3,0c-2.1,0-3.8,1.7-3.8,3.8s1.7,3.8,3.8,3.8s3.8-1.7,3.8-3.8
	c0-0.9-0.3-1.7-0.8-2.3l10.7-18.6l10.9,18.9c-0.5,0.6-0.8,1.4-0.8,2.3c0,2.1,1.7,3.8,3.8,3.8s3.8-1.7,3.8-3.8s-1.7-3.8-3.8-3.8
	c-0.1,0-0.2,0-0.3,0L33,29.6h22.9c0.6,1.4,1.9,2.3,3.5,2.3c2.1,0,3.8-1.7,3.8-3.8S61.4,24.3,59.3,24.3z"/>
<g>
	<circle class="st1" cx="31.6" cy="27.2" r="14.4"/>
	<path class="st0" d="M31.6,42.5c-8.4,0-15.3-6.9-15.3-15.3S23.1,12,31.6,12s15.3,6.9,15.3,15.3S40,42.5,31.6,42.5z M31.6,13.7
		c-7.5,0-13.5,6.1-13.5,13.5s6.1,13.5,13.5,13.5s13.5-6.1,13.5-13.5S39,13.7,31.6,13.7z"/>
</g>
<g>
	<path class="st0" d="M34.1,18.1c-0.7,0-1.5,0.5-2.6,0.5s-1.9-0.5-2.6-0.5c-0.7,0-2.6,0.6-2.6,3.3c0,2.1,1,3.5,1.4,4.3
		c0.1,0.3,0.4,0.4,0.7,0.4h0c0.1,0,0.2,0.1,0.2,0.2v0.9h5.8v-0.9c0-0.1,0.1-0.2,0.2-0.2h0c0.3,0,0.6-0.2,0.7-0.4
		c0.3-0.8,1.4-2.2,1.4-4.3C36.7,18.7,34.8,18.1,34.1,18.1z"/>
	<path class="st0" d="M33.7,32.4h-4.4c-0.2,0-0.4,0.2-0.4,0.4c0,0.2,0.2,0.4,0.4,0.4h0.4l0.1,0.7h3.3l0.1-0.7h0.4
		c0.2,0,0.4-0.2,0.4-0.4C34.1,32.5,33.9,32.4,33.7,32.4z"/>
	<path class="st0" d="M30.1,34.9c0,0,0.4,0.7,1.5,0.7s1.5-0.7,1.5-0.7l0.1-0.4H30L30.1,34.9z"/>
	<path class="st0" d="M34.8,28h-6.6c-0.2,0-0.4,0.2-0.4,0.4c0,0.2,0.2,0.4,0.4,0.4H29l0.1,0.7H34l0.1-0.7h0.7c0.2,0,0.4-0.2,0.4-0.4
		C35.2,28.2,35,28,34.8,28z"/>
	<path class="st0" d="M34.5,30.2h-5.8c-0.2,0-0.4,0.2-0.4,0.4c0,0.2,0.2,0.4,0.4,0.4h0.8l0.1,0.7h4.1l0.1-0.7h0.8
		c0.2,0,0.4-0.2,0.4-0.4C34.8,30.3,34.7,30.2,34.5,30.2z"/>
</g>
</svg>
