<?xml version="1.0" encoding="utf-8"?>
<!-- Generator: Adobe Illustrator 20.0.0, SVG Export Plug-In . SVG Version: 6.00 Build 0)  -->
<svg version="1.1" id="Layer_1" xmlns="http://www.w3.org/2000/svg" xmlns:xlink="http://www.w3.org/1999/xlink" x="0px" y="0px"
	 viewBox="0 0 81.4 36.5" style="enable-background:new 0 0 81.4 36.5;" xml:space="preserve">
<style type="text/css">
	.st0{fill:#FFFFFF;}
	.st1{fill:#FFFFFF;stroke:#1AA8B7;stroke-width:1.4654;stroke-miterlimit:10;}
	.st2{fill:#1AA8B7;}
	.st3{fill:#FFFFFF;stroke:#14A8B7;stroke-width:0.5;stroke-miterlimit:10;}
</style>
<path class="st0" d="M12.7,29.7c4.5,0,6.1-1.7,6.1-5.4c0-3.6-2.5-4.5-6.9-4.5c-2.1,0-4.7,0.5-7.9,1.5l-2.6-5.8L3.1,0.6h20.4v6.8H9.3
	l-1.1,7.4c2-0.6,4.1-0.8,5.9-0.8c7.8,0,12.3,4.4,12.3,11c0,6.4-4,11.6-13.4,11.6C8,36.5,3.5,35.4,0,33l2.6-5.8
	C5.6,28.9,9.1,29.7,12.7,29.7z"/>
<path class="st0" d="M29.2,18.2C29.2,5.8,33.1,0,43.1,0c10,0,14,5.8,14,18.2c0,12.4-3.9,18.2-14,18.2C33.1,36.5,29.2,30.7,29.2,18.2
	z M49.4,18.2c0-7.6-1.2-11.5-6.2-11.5c-5.1,0-6.3,3.9-6.3,11.5c0,7.5,1.2,11.5,6.3,11.5C48.2,29.7,49.4,25.7,49.4,18.2z"/>
<g>
	<path class="st1" d="M48,12.3c0-5.5,2.1-8.1,7.5-8.1c5.3,0,7.5,2.6,7.5,8.1c0,5.5-2.2,8.1-7.5,8.1C50.2,20.4,48,17.8,48,12.3z"/>
	<path class="st2" d="M58.5,12.3c0-3-0.5-4.7-3-4.7c-2.5,0-3,1.8-3,4.7c0,3,0.5,4.7,3,4.7C58,17,58.5,15.2,58.5,12.3z"/>
</g>
<polygon class="st3" points="60.3,31.4 57.2,30.5 68.4,4.2 71.5,5.1 "/>
<g>
	<path class="st1" d="M65.8,23.2c0-5.5,2.1-8.1,7.4-8.1c5.3,0,7.5,2.6,7.5,8.1s-2.1,8.1-7.5,8.1C67.9,31.4,65.8,28.8,65.8,23.2z"/>
	<path class="st2" d="M76.2,23.2c0-3-0.4-4.7-3-4.7c-2.5,0-3,1.8-3,4.7s0.5,4.7,3,4.7C75.8,28,76.2,26.2,76.2,23.2z"/>
</g>
</svg>
