<?xml version="1.0" encoding="utf-8"?>
<!-- Generator: Adobe Illustrator 20.0.0, SVG Export Plug-In . SVG Version: 6.00 Build 0)  -->
<svg version="1.1" id="Layer_1" xmlns="http://www.w3.org/2000/svg" xmlns:xlink="http://www.w3.org/1999/xlink" x="0px" y="0px"
	 viewBox="0 0 62.1 45.7" style="enable-background:new 0 0 62.1 45.7;" xml:space="preserve">
<style type="text/css">
	.st0{fill:none;stroke:#EABA1F;stroke-width:3;stroke-miterlimit:10;}
	.st1{fill:#FFFFFF;}
</style>
<g>
	<g>
		<path class="st0" d="M31.6,16.5c0,0-6.6-0.8-5.5,7.5c0,0-1.8,0.5,0.6,4.6c0,0,1.1,2.9,1.7,3.1c0,0,0.3,0.7-5.7,2.7
			c0,0-2.9,0.5-4,5.4c0,0-0.9,2.3,1.7,3.1c0,0,3.2,1,11.5,1.2L31.6,16.5z"/>
		<path class="st0" d="M31.5,16.4c0,0,6.6-0.8,5.5,7.5c0,0,1.8,0.5-0.6,4.6c0,0-1.1,2.9-1.7,3.1c0,0-0.3,0.7,5.7,2.7
			c0,0,2.9,0.5,4,5.4c0,0,0.9,2.3-1.7,3.1c0,0-3.2,1-11.5,1.2L31.5,16.4z"/>
	</g>
	<path class="st1" d="M44.4,39.9c-1.2-4.9-4-5.4-4-5.4c-6-2-5.7-2.7-5.7-2.7c0.6-0.2,1.7-3.1,1.7-3.1c2.4-4.2,0.6-4.6,0.6-4.6
		c1.1-8.3-5.5-7.5-5.5-7.5l0,0c-0.7-0.1-6.5-0.3-5.5,7.5c0,0-1.8,0.5,0.6,4.6c0,0,1.1,2.9,1.7,3.1c0,0,0.3,0.7-5.7,2.7
		c0,0-2.9,0.5-4,5.4c0,0-0.9,2.3,1.7,3.1c0,0,3.2,1,11.5,1.2l0,0c8-0.2,11.2-1.2,11.2-1.2C45.3,42.2,44.4,39.9,44.4,39.9z"/>
</g>
<rect x="16" y="4.4" transform="matrix(0.7962 -0.6051 0.6051 0.7962 -1.9051 11.8799)" class="st1" width="1.4" height="8.7"/>
<rect x="7.2" y="15.2" transform="matrix(0.4967 -0.8679 0.8679 0.4967 -12.9715 16.7058)" class="st1" width="1.4" height="8.7"/>
<rect y="32.2" class="st1" width="8.7" height="1.4"/>
<rect x="30.3" class="st1" width="1.4" height="8.7"/>
<rect x="53.4" y="32.2" class="st1" width="8.7" height="1.4"/>
<rect x="49.8" y="18.8" transform="matrix(0.8994 -0.4372 0.4372 0.8994 -3.0868 25.6301)" class="st1" width="8.7" height="1.4"/>
<polygon class="st1" points="43.2,12.6 42.1,11.7 47.6,4.9 48.6,5.8 "/>
</svg>
