<?xml version="1.0" encoding="utf-8"?>
<!-- Generator: Adobe Illustrator 20.0.0, SVG Export Plug-In . SVG Version: 6.00 Build 0)  -->
<svg version="1.1" id="Layer_1" xmlns="http://www.w3.org/2000/svg" xmlns:xlink="http://www.w3.org/1999/xlink" x="0px" y="0px"
	 viewBox="0 0 46.2 35.4" style="enable-background:new 0 0 46.2 35.4;" xml:space="preserve">
<style type="text/css">
	.st0{fill:#FFFFFF;}
</style>
<path class="st0" d="M45.6,26.4c-1.5-3.1-5.3-4.4-8.4-2.9c-0.8,0.4-1.5,1-2.1,1.7l-22.6-6.3c0-0.2,0-0.4-0.1-0.5l12.9-7.3
	c1.8,1.6,4.6,2.1,6.9,0.9c3.1-1.5,4.4-5.3,2.9-8.4s-5.3-4.4-8.4-2.9c-2.6,1.3-3.9,4.1-3.4,6.8l-12.9,7.3c-1.8-1.6-4.6-2.1-6.9-0.9
	c-3.1,1.5-4.4,5.3-2.9,8.4C2.2,25.3,5.9,26.6,9,25c1.1-0.5,1.9-1.3,2.5-2.3L33.7,29c0,1,0.2,1.9,0.6,2.9c1.5,3.1,5.3,4.4,8.4,2.9
	C45.8,33.2,47.1,29.5,45.6,26.4z"/>
</svg>
