<?xml version="1.0" encoding="utf-8"?>
<!-- Generator: Adobe Illustrator 20.0.0, SVG Export Plug-In . SVG Version: 6.00 Build 0)  -->
<svg version="1.1" id="Layer_1" xmlns="http://www.w3.org/2000/svg" xmlns:xlink="http://www.w3.org/1999/xlink" x="0px" y="0px"
	 viewBox="0 0 52.7 52.6" style="enable-background:new 0 0 52.7 52.6;" xml:space="preserve">
<style type="text/css">
	.st0{fill:#FFFFFF;stroke:#FFFFFF;stroke-width:0.8357;stroke-miterlimit:10;}
	.st1{fill:#FFFFFF;}
	.st2{fill:none;stroke:#EABA1F;stroke-width:3;stroke-miterlimit:10;}
</style>
<g>
	<g>
		<g>
			<rect x="14.6" y="3.3" transform="matrix(0.8658 -0.5005 0.5005 0.8658 -1.4179 8.5316)" class="st0" width="1.2" height="7.3"/>
			<rect x="6.4" y="11.4" transform="matrix(0.5 -0.866 0.866 0.5 -9.5359 13.6289)" class="st0" width="1.2" height="7.3"/>
			<rect x="0.4" y="25.6" class="st0" width="7.3" height="1.2"/>
			<polygon class="st0" points="9.9,35 10.5,36.1 4.2,39.7 3.6,38.7 			"/>
			
				<rect x="11.6" y="44.9" transform="matrix(0.4993 -0.8664 0.8664 0.4993 -31.8328 35.9734)" class="st0" width="7.3" height="1.2"/>
			<rect x="25.8" y="44.9" class="st0" width="1.2" height="7.3"/>
			<rect x="25.8" y="0.4" class="st0" width="1.2" height="7.3"/>
			
				<rect x="36.9" y="41.9" transform="matrix(0.8661 -0.4999 0.4999 0.8661 -17.7327 24.8434)" class="st0" width="1.2" height="7.3"/>
			
				<rect x="45.1" y="33.7" transform="matrix(0.4993 -0.8665 0.8665 0.4993 -9.5018 58.2716)" class="st0" width="1.2" height="7.3"/>
			<rect x="45" y="25.6" class="st0" width="7.3" height="1.2"/>
			<rect x="42" y="14.5" transform="matrix(0.8656 -0.5007 0.5007 0.8656 -1.4045 24.8847)" class="st0" width="7.3" height="1.2"/>
			<polygon class="st0" points="36.2,10.3 35.2,9.8 38.8,3.5 39.8,4 			"/>
		</g>
		<g>
			<path class="st1" d="M26.8,27.9c0,0-1.8,2.2-2.9-0.1c0,0-0.2-2.4,2.1-2.5c0,0,3.1-0.2,3.6,2.6c0,0,1.7,3.9-2.3,5.3
				c0,0-6.6,3.6-8.7-4.1c0,0-3.3-7,4.6-9.6c0,0,13.6-3.9,12.8,13.1c0,0-0.3,4.8,3.1-4.6c0,0-2.1-13.9-13.1-12.4
				c0,0-12.4,0-11.9,12.5c0,0,1.4,9.9,9.5,9.5c0,0,12.1,0.5,10.5-8.9c0,0-1.8-10.2-9.5-6.9c0,0-7.2,1.1-3.9,8c0,0,2.4,3.8,5.8,2.4
				C26.6,32.2,28.3,31.1,26.8,27.9z"/>
		</g>
	</g>
	<path class="st2" d="M25.5,27.8c-1.7-1.2,0.4-1.6,0.4-1.6c3.8-0.6,2.2,4.1,2.2,4.1c-3.8,5.3-8.5-0.8-8.5-0.8c-3-7,4.2-9.2,4.2-9.2
		c13.5-2.8,10.8,12.8,10.8,12.8s-0.7,2.5-1.3,3.5"/>
</g>
</svg>
